<svg width="40" height="40" viewBox="0 0 40 40" fill="none" xmlns="http://www.w3.org/2000/svg">
<path d="M37.3169 10.4502C35.5284 7.38594 33.1025 4.95994 30.0385 3.17168C26.974 1.38333 23.6286 0.48938 19.9997 0.48938C16.3713 0.48938 13.0247 1.3836 9.96085 3.17168C6.89656 4.95985 4.47074 7.38594 2.6823 10.4502C0.894131 13.5144 0 16.8606 0 20.4885C0 24.8465 1.27147 28.7654 3.81504 32.246C6.35833 35.727 9.64389 38.1356 13.6714 39.4723C14.1403 39.5593 14.4873 39.4981 14.713 39.2902C14.9387 39.0821 15.0515 38.8214 15.0515 38.5093C15.0515 38.4572 15.047 37.9887 15.0383 37.1031C15.0294 36.2176 15.0252 35.445 15.0252 34.7858L14.4262 34.8895C14.0443 34.9594 13.5625 34.9891 12.9809 34.9807C12.3995 34.9726 11.796 34.9116 11.1711 34.7983C10.546 34.6861 9.9645 34.4257 9.42627 34.0177C8.88831 33.6097 8.50642 33.0757 8.28067 32.4164L8.02027 31.8172C7.84669 31.4182 7.57343 30.975 7.20011 30.4892C6.82679 30.003 6.44927 29.6734 6.06737 29.4998L5.88504 29.3693C5.76355 29.2825 5.65082 29.1779 5.54656 29.0565C5.4424 28.9351 5.36442 28.8136 5.31234 28.6919C5.26016 28.5702 5.3034 28.4703 5.44249 28.3919C5.58159 28.3136 5.83296 28.2756 6.19771 28.2756L6.71834 28.3534C7.06557 28.423 7.49508 28.6308 8.00741 28.9782C8.51946 29.3254 8.94039 29.7767 9.2703 30.332C9.6698 31.044 10.1511 31.5865 10.7156 31.9598C11.2797 32.3331 11.8483 32.5195 12.4211 32.5195C12.9939 32.5195 13.4887 32.476 13.9055 32.3897C14.3219 32.3028 14.7125 32.1723 15.0773 31.9988C15.2335 30.8352 15.6589 29.9412 16.3531 29.3164C15.3637 29.2124 14.4741 29.0558 13.6839 28.8475C12.8942 28.639 12.0782 28.3006 11.2363 27.8315C10.394 27.3629 9.69524 26.7811 9.13987 26.087C8.5844 25.3925 8.12853 24.4808 7.77291 23.3526C7.4171 22.224 7.23914 20.922 7.23914 19.4464C7.23914 17.3454 7.92504 15.5575 9.29657 14.0818C8.65408 12.5022 8.71474 10.7314 9.47871 8.76969C9.98219 8.61326 10.7288 8.73065 11.7183 9.12112C12.7079 9.51177 13.4325 9.84642 13.8927 10.1239C14.353 10.4013 14.7217 10.6363 14.9996 10.8269C16.6144 10.3757 18.2809 10.1501 19.9995 10.1501C21.7181 10.1501 23.3849 10.3757 24.9999 10.8269L25.9894 10.2022C26.6661 9.7854 27.4652 9.40341 28.3848 9.05618C29.3049 8.70912 30.0085 8.61354 30.4948 8.76996C31.2758 10.7318 31.3454 12.5025 30.7027 14.082C32.0741 15.5578 32.7603 17.3462 32.7603 19.4467C32.7603 20.9223 32.5817 22.2283 32.2265 23.3656C31.8707 24.5031 31.4109 25.4139 30.8469 26.1C30.2822 26.786 29.579 27.3633 28.7371 27.8317C27.8951 28.3006 27.0788 28.6389 26.2891 28.8474C25.499 29.056 24.6094 29.2127 23.62 29.3168C24.5224 30.0978 24.9737 31.3305 24.9737 33.0144V38.5086C24.9737 38.8207 25.0823 39.0813 25.2995 39.2895C25.5165 39.4974 25.8592 39.5586 26.328 39.4715C30.3561 38.135 33.6417 35.7262 36.1849 32.2453C38.7278 28.7646 39.9997 24.8458 39.9997 20.4878C39.9988 16.8603 39.1042 13.5144 37.3169 10.4502Z" fill="white"/>
</svg>
