<svg width="444" height="423" viewBox="0 0 444 423" fill="none" xmlns="http://www.w3.org/2000/svg">
<g clip-path="url(#clip0_194_559)">
<path d="M412.54 112.382V88.6313H408.839V112.382C407.777 112.81 406.898 113.594 406.352 114.598C405.806 115.602 405.627 116.765 405.845 117.887C406.064 119.008 406.667 120.019 407.551 120.746C408.434 121.473 409.544 121.87 410.689 121.87C411.835 121.87 412.944 121.473 413.828 120.746C414.712 120.019 415.315 119.008 415.533 117.887C415.752 116.765 415.573 115.602 415.027 114.598C414.481 113.594 413.602 112.81 412.54 112.382Z" fill="#E6E6E6"/>
<path d="M421.176 352.064H395.885V45.5469H386.015V352.064H360.723C357.726 352.064 354.758 352.653 351.989 353.798C349.22 354.942 346.704 356.62 344.584 358.734C342.465 360.849 340.784 363.36 339.637 366.122C338.49 368.885 337.899 371.847 337.899 374.837V374.838H444V374.837C444 371.847 443.41 368.885 442.263 366.122C441.116 363.359 439.434 360.849 437.315 358.734C435.196 356.62 432.679 354.942 429.91 353.798C427.141 352.653 424.173 352.064 421.176 352.064Z" fill="#E6E6E6"/>
<path d="M337.951 91.0935H443.949L437.467 10.254C437.23 7.46645 435.956 4.86832 433.896 2.9707C431.836 1.07308 429.139 0.0133502 426.335 0H355.564C352.761 0.0133517 350.063 1.07308 348.003 2.9707C345.943 4.86832 344.669 7.46645 344.432 10.254L337.951 91.0935Z" fill="#7B2CBF"/>
<path d="M37.689 281.611H361.221V248.654C361.221 159.654 288.653 87.2466 199.455 87.2466C110.257 87.2466 37.689 159.654 37.689 248.654V281.611Z" fill="#3F3D56"/>
<path opacity="0.2" d="M37.689 281.611H361.221V248.654C361.221 159.654 288.653 87.2466 199.455 87.2466C110.257 87.2466 37.689 159.654 37.689 248.654V281.611Z" fill="black"/>
<path d="M79.6201 293.02H328.606C328.37 279.95 323.004 267.493 313.661 258.328C304.319 249.163 291.746 244.021 278.644 244.006H129.582C116.481 244.021 103.908 249.163 94.5652 258.328C85.2228 267.493 79.8567 279.95 79.6201 293.02Z" fill="#7B2CBF"/>
<path d="M49.9696 287.95C77.5671 287.95 99.9392 265.627 99.9392 238.091C99.9392 210.554 77.5671 188.232 49.9696 188.232C22.3722 188.232 0 210.554 0 238.091C0 265.627 22.3722 287.95 49.9696 287.95Z" fill="#3F3D56"/>
<path d="M353.175 287.95C380.773 287.95 403.145 265.627 403.145 238.091C403.145 210.554 380.773 188.232 353.175 188.232C325.578 188.232 303.205 210.554 303.205 238.091C303.205 265.627 325.578 287.95 353.175 287.95Z" fill="#3F3D56"/>
<path d="M315.486 263.443V282.034H84.6943V263.443H33.0308V354.058C33.0308 359.61 35.2412 364.934 39.1757 368.86C43.1102 372.786 48.4466 374.991 54.0109 374.991H346.169C348.925 374.991 351.653 374.45 354.198 373.398C356.744 372.346 359.057 370.804 361.005 368.86C362.953 366.916 364.498 364.609 365.553 362.069C366.607 359.529 367.15 356.807 367.15 354.058V263.443H315.486Z" fill="#3F3D56"/>
<path opacity="0.2" d="M49.9696 248.231C55.5826 248.231 60.1329 243.691 60.1329 238.091C60.1329 232.49 55.5826 227.95 49.9696 227.95C44.3565 227.95 39.8063 232.49 39.8063 238.091C39.8063 243.691 44.3565 248.231 49.9696 248.231Z" fill="black"/>
<path opacity="0.2" d="M353.175 248.231C358.788 248.231 363.338 243.691 363.338 238.091C363.338 232.49 358.788 227.95 353.175 227.95C347.562 227.95 343.012 232.49 343.012 238.091C343.012 243.691 347.562 248.231 353.175 248.231Z" fill="black"/>
<path d="M217.863 81.5509C217.863 81.5509 218.862 100.493 225.856 104.48C232.85 108.468 225.856 135.385 225.856 135.385L192.884 136.382L190.886 104.48C190.886 104.48 194.882 91.5203 192.884 85.5387C190.886 79.5571 217.863 81.5509 217.863 81.5509Z" fill="#FFB8B8"/>
<path d="M254.831 344.741L242.842 358.698L261.826 376.643L271.817 356.704L254.831 344.741Z" fill="#FFB8B8"/>
<path d="M169.904 344.741L181.894 358.698L162.909 376.643L152.918 356.704L169.904 344.741Z" fill="#FFB8B8"/>
<path d="M248.337 212.647C248.337 212.647 320.275 236.574 316.279 259.503C312.282 282.433 281.309 363.184 281.309 363.184C281.309 363.184 264.323 363.184 251.334 345.239L260.326 325.301C260.326 325.301 256.33 314.334 263.324 312.34C270.318 310.347 274.314 275.454 274.314 275.454C274.314 275.454 223.358 271.466 212.367 252.525L192.385 204.672L248.337 212.647Z" fill="#2F2E41"/>
<path d="M176.398 212.647C176.398 212.647 104.46 236.574 108.456 259.503C112.453 282.433 143.426 363.184 143.426 363.184C143.426 363.184 160.412 363.184 173.401 345.239L164.408 325.301C164.408 325.301 168.405 314.334 161.411 312.34C154.417 310.347 150.42 275.454 150.42 275.454C150.42 275.454 201.377 271.466 212.367 252.525L232.35 204.672L176.398 212.647Z" fill="#2F2E41"/>
<path d="M258.328 369.166C258.328 369.166 268.32 360.193 269.319 367.172C270.318 374.15 268.32 402.064 268.32 402.064C268.32 402.064 278.311 423 263.324 423C248.337 423 241.343 407.049 243.341 391.098C245.339 375.147 236.347 369.166 236.347 369.166C236.347 369.166 225.356 347.233 236.347 345.239C247.338 343.245 251.334 348.23 251.334 348.23C251.334 348.23 247.338 366.175 258.328 369.166Z" fill="#2F2E41"/>
<path d="M166.407 369.166C166.407 369.166 156.415 360.193 155.416 367.172C154.417 374.15 156.415 402.064 156.415 402.064C156.415 402.064 146.424 423 161.411 423C176.398 423 183.392 407.049 181.394 391.098C179.396 375.147 188.388 369.166 188.388 369.166C188.388 369.166 199.379 347.233 188.388 345.239C177.397 343.245 173.401 348.23 173.401 348.23C173.401 348.23 177.397 366.175 166.407 369.166Z" fill="#2F2E41"/>
<path d="M202.376 93.016C215.068 93.016 225.356 82.7502 225.356 70.0866C225.356 57.4231 215.068 47.1572 202.376 47.1572C189.684 47.1572 179.396 57.4231 179.396 70.0866C179.396 82.7502 189.684 93.016 202.376 93.016Z" fill="#FFB8B8"/>
<path d="M205.873 109.465L191.885 98.499L157.914 114.45L156.915 205.171C156.915 205.171 135.933 215.14 141.928 228.1C141.928 228.1 159.912 232.088 167.906 240.063C175.899 248.039 220.86 237.072 239.844 231.091C258.828 225.109 263.824 218.131 263.824 218.131L244.84 191.214L255.83 122.425L221.863 99.639L205.873 109.465Z" fill="#E6E6E6"/>
<path d="M230.314 54.4799C229.814 53.802 229.356 53.0934 228.944 52.3584C228.232 50.6268 229.357 48.5862 228.306 46.9693C227.232 45.3186 224.507 44.9706 222.652 43.8492C219.796 42.1218 219.276 38.7321 216.6 36.8285C214.671 35.457 211.921 35.0872 209.344 35.1655C206.768 35.2437 204.225 35.7086 201.647 35.7596C198.167 35.8371 194.715 35.1326 191.545 33.6982L193.446 37.4102C191.333 36.9506 189.314 36.134 187.476 34.9957C186.635 36.0368 188.174 37.6169 187.22 38.5933C186.829 38.9083 186.366 39.1224 185.873 39.2167C182.204 40.2568 178.75 41.9382 175.671 44.1827C174.958 44.6351 174.368 45.2563 173.954 45.9909C173.459 47.0871 173.898 48.2977 173.861 49.4632C173.792 51.5809 172.172 53.4276 171.022 55.3354C169.872 57.2431 169.252 59.7165 170.957 61.3356C171.372 61.6646 171.769 62.0145 172.148 62.384C173.857 64.395 170.833 67.34 172.29 69.474C172.923 70.4005 174.221 70.8694 175.348 71.4168C177.508 72.4243 179.325 74.0403 180.576 76.0655L179.699 69.6469C179.653 69.4883 179.645 69.3211 179.675 69.1588C179.706 68.9965 179.774 68.8435 179.874 68.712C180.298 68.2803 181.187 68.4524 181.773 68.1665C182.418 67.8519 182.467 67.1304 182.441 66.526L182.244 61.866C182.155 59.7705 182.13 59.4922 183.677 57.8008C184.758 56.619 186.458 55.9061 188.165 55.3817C192.067 54.1835 196.263 53.769 200.411 53.364C205.229 52.8936 210.653 50.5615 214.394 53.0376C217.456 55.0646 218.474 58.3963 219.95 61.3511C221.276 64.007 224.68 71.8269 227.513 67.5939C229.293 64.9356 232.015 57.4398 230.314 54.4799Z" fill="#2F2E41"/>
<path d="M206.321 63.4351C206.227 63.4352 206.136 63.4727 206.069 63.5394C206.002 63.6062 205.964 63.6967 205.964 63.7912V73.3912C205.964 73.4857 206.002 73.5762 206.069 73.6429C206.136 73.7097 206.227 73.7472 206.321 73.7473H222.884C222.978 73.7472 223.069 73.7097 223.136 73.6429C223.203 73.5762 223.241 73.4857 223.241 73.3912V63.7912C223.241 63.6967 223.203 63.6062 223.136 63.5394C223.069 63.4727 222.978 63.4351 222.884 63.4351L206.321 63.4351Z" fill="#3F3D56"/>
<path d="M208.172 64.2817C207.996 64.2819 207.827 64.352 207.702 64.4764C207.577 64.6009 207.507 64.7696 207.507 64.9456V72.2369C207.507 72.4129 207.577 72.5817 207.702 72.7061C207.827 72.8306 207.996 72.9006 208.172 72.9008H221.033C221.209 72.9006 221.378 72.8306 221.503 72.7061C221.628 72.5817 221.698 72.4129 221.698 72.2369V64.9456C221.698 64.7696 221.628 64.6009 221.503 64.4764C221.378 64.352 221.209 64.2819 221.033 64.2817H208.172Z" fill="#FF6584"/>
<path d="M206.507 66.5972H197.88V68.591H206.507V66.5972Z" fill="#3F3D56"/>
<path d="M182.867 63.4351C182.773 63.4352 182.682 63.4728 182.615 63.5395C182.548 63.6063 182.511 63.6968 182.51 63.7912V73.3912C182.511 73.4856 182.548 73.5761 182.615 73.6429C182.682 73.7096 182.773 73.7472 182.867 73.7473H199.43C199.525 73.7472 199.616 73.7096 199.683 73.6429C199.749 73.5761 199.787 73.4856 199.787 73.3912V63.7912C199.787 63.6968 199.749 63.6063 199.683 63.5395C199.616 63.4728 199.525 63.4352 199.43 63.4351L182.867 63.4351Z" fill="#3F3D56"/>
<path d="M184.719 64.2817C184.542 64.2819 184.373 64.3519 184.248 64.4763C184.123 64.6008 184.053 64.7696 184.053 64.9456V72.2369C184.053 72.413 184.123 72.5817 184.248 72.7062C184.373 72.8307 184.542 72.9007 184.719 72.9008H197.579C197.756 72.9007 197.925 72.8307 198.05 72.7062C198.174 72.5817 198.244 72.413 198.245 72.2369V64.9456C198.244 64.7696 198.174 64.6008 198.05 64.4763C197.925 64.3519 197.756 64.2819 197.579 64.2817H184.719Z" fill="#7B2CBF"/>
<path d="M173.813 183.264H231.182C233.472 183.264 235.669 184.172 237.288 185.788C238.908 187.404 239.818 189.596 239.818 191.881H165.177C165.177 189.596 166.087 187.404 167.707 185.788C169.326 184.172 171.523 183.264 173.813 183.264Z" fill="#3F3D56"/>
<path d="M235.191 182.649C234.856 182.65 234.522 182.707 234.205 182.816C234.096 182.379 233.831 181.997 233.459 181.742C233.087 181.487 232.634 181.376 232.186 181.431C231.738 181.486 231.326 181.703 231.027 182.041C230.729 182.379 230.564 182.814 230.565 183.264C230.565 183.273 230.567 183.282 230.567 183.291C230.336 183.313 230.108 183.36 229.887 183.432C229.824 183.183 229.711 182.95 229.553 182.748C229.396 182.545 229.198 182.378 228.972 182.255C229.565 181.928 230.034 181.416 230.307 180.798C230.654 180.832 231.004 180.793 231.335 180.683C231.666 180.574 231.969 180.396 232.226 180.161C232.484 179.926 232.688 179.64 232.827 179.321C232.966 179.002 233.036 178.657 233.032 178.31C233.029 177.962 232.952 177.619 232.806 177.303C232.661 176.987 232.451 176.705 232.189 176.475C231.927 176.246 231.619 176.074 231.286 175.971C230.954 175.868 230.603 175.837 230.257 175.878C229.921 175.88 229.587 175.936 229.27 176.046C229.213 175.804 229.108 175.576 228.96 175.375C228.812 175.175 228.625 175.007 228.411 174.881C228.196 174.755 227.958 174.673 227.711 174.641C227.464 174.609 227.213 174.628 226.973 174.695C226.733 174.763 226.509 174.878 226.316 175.035C226.122 175.191 225.962 175.385 225.845 175.604C225.728 175.824 225.657 176.065 225.636 176.313C225.616 176.56 225.645 176.81 225.724 177.046C225.65 177.097 225.581 177.155 225.512 177.212C225.163 176.912 224.71 176.762 224.251 176.793C224.014 176.113 223.544 175.538 222.925 175.169C222.306 174.8 221.576 174.66 220.864 174.774C220.151 174.888 219.502 175.248 219.029 175.792C218.556 176.335 218.29 177.028 218.278 177.747C218.03 177.767 217.786 177.815 217.55 177.892C217.523 177.788 217.488 177.686 217.443 177.588C217.687 177.374 217.882 177.111 218.018 176.816C218.153 176.522 218.224 176.202 218.228 175.878C218.184 175.185 217.868 174.537 217.348 174.076C216.828 173.615 216.147 173.378 215.452 173.416C215.116 173.418 214.783 173.474 214.465 173.584C214.408 173.342 214.303 173.114 214.155 172.913C214.007 172.713 213.821 172.545 213.606 172.419C213.391 172.293 213.153 172.211 212.906 172.179C212.659 172.147 212.408 172.166 212.168 172.233C211.928 172.301 211.705 172.416 211.511 172.573C211.317 172.729 211.157 172.923 211.04 173.142C210.923 173.362 210.852 173.603 210.832 173.851C210.811 174.099 210.841 174.348 210.919 174.584C210.531 174.853 210.21 175.208 209.981 175.621C209.752 176.034 209.622 176.494 209.601 176.965C209.574 176.988 209.545 177.007 209.52 177.032C209.566 176.856 209.59 176.675 209.592 176.494C209.548 175.801 209.232 175.153 208.712 174.692C208.192 174.231 207.51 173.993 206.816 174.032C206.48 174.033 206.147 174.09 205.829 174.199C205.772 173.957 205.667 173.729 205.519 173.529C205.371 173.329 205.184 173.16 204.97 173.034C204.755 172.908 204.517 172.827 204.27 172.795C204.023 172.763 203.772 172.781 203.532 172.849C203.292 172.917 203.068 173.032 202.875 173.188C202.681 173.344 202.521 173.538 202.404 173.758C202.287 173.978 202.216 174.218 202.196 174.466C202.175 174.714 202.204 174.963 202.283 175.199C201.873 175.482 201.539 175.859 201.307 176.299C201.076 176.739 200.955 177.228 200.955 177.725C200.955 178.221 201.076 178.71 201.307 179.15C201.539 179.59 201.873 179.967 202.283 180.25C202.158 180.607 202.158 180.997 202.283 181.354C201.974 181.57 201.706 181.839 201.494 182.149C201.379 181.736 201.124 181.376 200.771 181.131C200.418 180.886 199.991 180.772 199.562 180.809C199.134 180.846 198.732 181.031 198.427 181.333C198.122 181.634 197.932 182.033 197.89 182.46C197.643 182.316 197.376 182.208 197.097 182.14C197.597 181.811 197.99 181.345 198.23 180.798C198.577 180.832 198.927 180.793 199.258 180.683C199.588 180.574 199.892 180.396 200.149 180.161C200.407 179.926 200.611 179.64 200.75 179.321C200.889 179.002 200.959 178.657 200.955 178.31C200.952 177.962 200.875 177.619 200.729 177.303C200.584 176.987 200.374 176.705 200.112 176.475C199.85 176.246 199.542 176.074 199.209 175.971C198.877 175.868 198.526 175.837 198.18 175.878C197.844 175.88 197.51 175.936 197.193 176.046C197.136 175.804 197.031 175.576 196.883 175.375C196.735 175.175 196.548 175.007 196.334 174.881C196.119 174.755 195.881 174.673 195.634 174.641C195.387 174.609 195.136 174.628 194.896 174.695C194.656 174.763 194.432 174.878 194.239 175.035C194.045 175.191 193.885 175.385 193.768 175.604C193.651 175.824 193.58 176.065 193.559 176.313C193.539 176.56 193.568 176.81 193.647 177.046C193.607 177.073 193.572 177.106 193.533 177.135C193.437 177.126 193.344 177.109 193.245 177.109C192.909 177.111 192.576 177.167 192.258 177.277C192.246 177.23 192.227 177.187 192.212 177.142C192.272 176.868 192.267 176.584 192.198 176.312C192.129 176.04 191.998 175.788 191.815 175.575C191.632 175.363 191.402 175.195 191.143 175.086C190.884 174.977 190.604 174.929 190.323 174.946C190.163 174.5 189.901 174.097 189.558 173.768C189.215 173.44 188.801 173.195 188.348 173.053C187.894 172.91 187.414 172.875 186.944 172.948C186.475 173.022 186.029 173.203 185.641 173.477C185.253 173.751 184.934 174.112 184.709 174.529C184.484 174.947 184.359 175.411 184.343 175.885C184.328 176.359 184.422 176.83 184.62 177.261C184.817 177.693 185.111 178.073 185.48 178.372C185.268 178.396 185.059 178.442 184.856 178.508C184.783 178.208 184.635 177.931 184.426 177.703C184.217 177.475 183.954 177.304 183.66 177.205C183.367 177.106 183.054 177.083 182.749 177.138C182.445 177.193 182.159 177.323 181.918 177.518C181.643 177.192 181.299 176.931 180.911 176.754C180.523 176.577 180.1 176.488 179.674 176.494C179.338 176.495 179.004 176.552 178.687 176.661C178.63 176.419 178.525 176.191 178.377 175.991C178.229 175.791 178.042 175.622 177.828 175.496C177.613 175.37 177.375 175.289 177.128 175.257C176.881 175.225 176.63 175.243 176.39 175.311C176.15 175.379 175.926 175.494 175.733 175.65C175.539 175.806 175.379 176 175.262 176.22C175.145 176.439 175.074 176.68 175.053 176.928C175.033 177.176 175.062 177.425 175.141 177.661C174.731 177.944 174.397 178.321 174.166 178.761C173.934 179.201 173.813 179.69 173.813 180.187C173.813 180.196 173.816 180.205 173.816 180.214C173.379 180.148 172.932 180.196 172.518 180.354C172.461 180.112 172.356 179.884 172.208 179.684C172.061 179.484 171.874 179.315 171.659 179.189C171.444 179.063 171.206 178.982 170.959 178.95C170.712 178.918 170.461 178.936 170.221 179.004C169.981 179.072 169.758 179.187 169.564 179.343C169.37 179.499 169.21 179.693 169.093 179.913C168.976 180.132 168.906 180.373 168.885 180.621C168.864 180.869 168.894 181.118 168.972 181.354C168.377 181.756 167.942 182.353 167.743 183.042C167.544 183.731 167.593 184.467 167.881 185.124C168.17 185.78 168.68 186.315 169.323 186.635C169.966 186.955 170.701 187.04 171.4 186.875C171.511 187.517 171.825 188.107 172.295 188.56C172.765 189.012 173.367 189.303 174.014 189.391C174.662 189.479 175.32 189.359 175.894 189.048C176.468 188.737 176.928 188.252 177.207 187.662C179.429 187.951 181.684 187.849 183.871 187.363C184.075 187.946 184.45 188.454 184.948 188.82C185.446 189.187 186.044 189.395 186.662 189.417C187.28 189.439 187.891 189.275 188.414 188.945C188.937 188.615 189.349 188.135 189.594 187.568C190.044 187.559 190.486 187.45 190.888 187.249C191.169 187.745 191.584 188.153 192.085 188.427C192.587 188.701 193.155 188.83 193.726 188.799C194.296 188.768 194.847 188.579 195.316 188.253C195.785 187.927 196.153 187.476 196.379 186.952C197.065 186.823 197.775 186.937 198.386 187.275C198.997 187.613 199.469 188.154 199.722 188.803C200.134 188.24 200.665 187.773 201.277 187.435C201.889 187.097 202.567 186.897 203.265 186.847C203.885 187.019 204.544 186.989 205.145 186.76C205.746 186.531 206.258 186.115 206.605 185.574C206.411 186.324 206.508 187.119 206.875 187.8C207.243 188.482 207.854 189 208.588 189.252C209.322 189.504 210.123 189.47 210.833 189.158C211.543 188.846 212.109 188.278 212.418 187.568C212.868 187.559 213.31 187.45 213.712 187.249C213.993 187.745 214.408 188.153 214.909 188.427C215.411 188.701 215.979 188.83 216.55 188.799C217.12 188.768 217.671 188.579 218.14 188.253C218.609 187.927 218.977 187.476 219.203 186.952C219.653 186.944 220.095 186.834 220.497 186.633C220.714 187.019 221.013 187.353 221.372 187.612C221.731 187.87 222.143 188.048 222.578 188.132C223.013 188.216 223.462 188.205 223.892 188.099C224.322 187.993 224.724 187.794 225.07 187.517C225.177 188.106 225.454 188.651 225.868 189.084C226.282 189.517 226.814 189.82 227.398 189.955C227.982 190.09 228.593 190.052 229.156 189.845C229.718 189.637 230.208 189.27 230.564 188.788C230.934 189.072 231.364 189.267 231.821 189.359C232.278 189.451 232.751 189.437 233.202 189.32C233.653 189.202 234.071 188.983 234.425 188.679C234.779 188.376 235.058 187.996 235.242 187.568C235.589 187.602 235.939 187.563 236.27 187.454C236.6 187.344 236.904 187.166 237.161 186.931C237.418 186.697 237.623 186.41 237.762 186.091C237.901 185.772 237.971 185.428 237.967 185.08C237.964 184.732 237.887 184.389 237.741 184.073C237.596 183.757 237.385 183.475 237.123 183.246C236.862 183.016 236.554 182.845 236.221 182.742C235.888 182.639 235.537 182.607 235.191 182.648L235.191 182.649ZM180.057 181.378C180.054 181.393 180.052 181.408 180.049 181.423C180.026 181.422 180.005 181.418 179.982 181.418C179.89 181.42 179.798 181.429 179.707 181.445C179.712 181.434 179.719 181.424 179.724 181.413C179.836 181.407 179.947 181.396 180.057 181.378ZM205.829 180.354C205.82 180.318 205.805 180.285 205.794 180.25C206.265 179.925 206.636 179.475 206.866 178.951C207.272 178.949 207.672 178.861 208.042 178.695C208.412 178.528 208.742 178.285 209.011 177.982C208.987 178.1 208.975 178.22 208.975 178.34C208.977 178.528 209.009 178.714 209.068 178.892C208.539 179.261 208.138 179.785 207.922 180.392C207.251 180.132 206.509 180.118 205.829 180.354V180.354ZM224.305 180.584C224.303 180.546 224.308 180.507 224.306 180.47C224.384 180.469 224.463 180.464 224.541 180.454C224.66 180.852 224.86 181.221 225.128 181.54C225.07 181.556 225.009 181.566 224.952 181.585C224.852 181.189 224.625 180.837 224.305 180.584Z" fill="#F9A825"/>
<path d="M171.391 186.342C170.516 186.342 169.65 186.52 168.847 186.864C168.043 187.209 167.318 187.714 166.716 188.348C166.114 188.981 165.648 189.731 165.346 190.55C165.044 191.369 164.912 192.242 164.959 193.113L169.136 250.426C169.225 252.068 169.941 253.615 171.137 254.746C172.334 255.878 173.92 256.509 175.568 256.508H229.427C231.076 256.509 232.662 255.878 233.858 254.746C235.055 253.615 235.771 252.068 235.859 250.426L240.036 193.113C240.083 192.242 239.952 191.369 239.65 190.55C239.348 189.731 238.881 188.981 238.279 188.348C237.678 187.714 236.953 187.209 236.149 186.864C235.345 186.52 234.479 186.342 233.604 186.342H171.391Z" fill="#3F3D56"/>
<path d="M178.132 186.342H174.43V256.508H178.132V186.342Z" fill="#7B2CBF"/>
<path d="M188.618 186.342H184.917V256.508H188.618V186.342Z" fill="#7B2CBF"/>
<path d="M199.105 186.342H195.404V256.508H199.105V186.342Z" fill="#7B2CBF"/>
<path d="M209.592 186.342H205.89V256.508H209.592V186.342Z" fill="#7B2CBF"/>
<path d="M220.078 186.342H216.377V256.508H220.078V186.342Z" fill="#7B2CBF"/>
<path d="M230.565 186.342H226.864V256.508H230.565V186.342Z" fill="#7B2CBF"/>
<path d="M226.855 221.122L214.865 228.1C214.865 228.1 185.89 252.026 205.873 256.014C225.856 260.002 230.852 239.066 230.852 239.066L237.846 231.091L226.855 221.122Z" fill="#FFB8B8"/>
<path d="M169.904 216.137L181.894 223.115C181.894 223.115 210.869 247.042 190.886 251.029C170.903 255.017 165.907 234.081 165.907 234.081L158.913 226.106L169.904 216.137Z" fill="#FFB8B8"/>
<path d="M242.841 121.428L255.83 122.425C255.83 122.425 265.822 131.398 264.823 143.361C264.823 143.361 273.815 169.281 271.817 180.247C271.817 180.247 273.815 198.192 270.818 205.17C267.82 212.149 242.841 239.066 242.841 239.066C242.841 239.066 219.861 221.121 220.86 220.124L250.835 190.216L235.847 170.278L242.841 121.428Z" fill="#E6E6E6"/>
<path d="M157.914 114.45L157.415 114.948C157.415 114.948 134.934 124.419 135.933 136.382C135.933 136.382 126.941 162.302 128.939 173.269C128.939 173.269 126.941 191.213 129.938 198.192C132.935 205.17 157.914 232.088 157.914 232.088C157.914 232.088 180.894 214.143 179.895 213.146L149.921 183.238L164.908 163.299L157.914 114.45Z" fill="#E6E6E6"/>
</g>
<defs>
<clipPath id="clip0_194_559">
<rect width="444" height="423" fill="white"/>
</clipPath>
</defs>
</svg>
