<svg width="419" height="385" viewBox="0 0 419 385" fill="none" xmlns="http://www.w3.org/2000/svg">
<path d="M29.2622 342.722C22.3928 347.455 15.3682 352.341 10.6116 359.198C5.85523 366.054 3.77889 375.414 7.60078 382.833L7.5022 383.296C10.3989 384.315 13.5089 384.57 16.5328 384.037C19.5567 383.504 22.3924 382.2 24.7668 380.252C30.8135 375.173 32.7096 366.805 34.252 359.057L38.8149 336.139L29.2622 342.722Z" fill="#F0F0F0"/>
<path d="M35.8785 365.833C31.2961 366.847 26.6009 367.908 22.6715 370.477C18.7424 373.046 15.6818 377.487 16.1069 382.164L15.9578 382.385C17.2529 383.529 18.8207 384.32 20.5101 384.682C22.1995 385.044 23.9537 384.965 25.6035 384.452C29.8298 383.083 32.5868 379.121 35.0285 375.407L42.2507 364.422L35.8785 365.833Z" fill="#F0F0F0"/>
<path d="M418.432 20.4589H27.1697C27.0194 20.4584 26.8755 20.3982 26.7694 20.2917C26.6633 20.1852 26.6038 20.041 26.6038 19.8906C26.6038 19.7402 26.6633 19.5959 26.7694 19.4894C26.8755 19.3829 27.0194 19.3228 27.1697 19.3223H418.432C418.582 19.3228 418.726 19.3829 418.832 19.4894C418.939 19.5959 418.998 19.7402 418.998 19.8906C418.998 20.041 418.939 20.1852 418.832 20.2917C418.726 20.3982 418.582 20.4584 418.432 20.4589Z" fill="#CACACA"/>
<path d="M39.9512 12.5026C43.401 12.5026 46.1977 9.70379 46.1977 6.25129C46.1977 2.7988 43.401 0 39.9512 0C36.5013 0 33.7046 2.7988 33.7046 6.25129C33.7046 9.70379 36.5013 12.5026 39.9512 12.5026Z" fill="#3F3D56"/>
<path d="M61.5303 12.5026C64.9801 12.5026 67.7768 9.70379 67.7768 6.25129C67.7768 2.7988 64.9801 0 61.5303 0C58.0804 0 55.2837 2.7988 55.2837 6.25129C55.2837 9.70379 58.0804 12.5026 61.5303 12.5026Z" fill="#3F3D56"/>
<path d="M83.1092 12.5026C86.5591 12.5026 89.3558 9.70379 89.3558 6.25129C89.3558 2.7988 86.5591 0 83.1092 0C79.6594 0 76.8627 2.7988 76.8627 6.25129C76.8627 9.70379 79.6594 12.5026 83.1092 12.5026Z" fill="#3F3D56"/>
<path d="M405.503 3.82373H390.171C389.869 3.82373 389.58 3.70397 389.367 3.49082C389.154 3.27767 389.035 2.98858 389.035 2.68713C389.035 2.38569 389.154 2.09659 389.367 1.88343C389.58 1.67028 389.869 1.55054 390.171 1.55054H405.503C405.804 1.55054 406.093 1.67028 406.306 1.88343C406.519 2.09659 406.639 2.38569 406.639 2.68713C406.639 2.98858 406.519 3.27767 406.306 3.49082C406.093 3.70397 405.804 3.82373 405.503 3.82373Z" fill="#3F3D56"/>
<path d="M405.503 8.08593H390.171C389.869 8.08593 389.58 7.96619 389.367 7.75304C389.154 7.53989 389.035 7.25078 389.035 6.94934C389.035 6.6479 389.154 6.3588 389.367 6.14565C389.58 5.9325 389.869 5.81274 390.171 5.81274H405.503C405.804 5.81274 406.093 5.9325 406.306 6.14565C406.519 6.3588 406.639 6.6479 406.639 6.94934C406.639 7.25078 406.519 7.53989 406.306 7.75304C406.093 7.96619 405.804 8.08593 405.503 8.08593Z" fill="#3F3D56"/>
<path d="M405.503 12.3481H390.171C389.869 12.3481 389.58 12.2284 389.367 12.0152C389.154 11.8021 389.035 11.513 389.035 11.2115C389.035 10.9101 389.154 10.621 389.367 10.4078C389.58 10.1947 389.869 10.075 390.171 10.075H405.503C405.804 10.076 406.091 10.1962 406.304 10.4092C406.516 10.6223 406.635 10.9108 406.635 11.2115C406.635 11.5123 406.516 11.8008 406.304 12.0139C406.091 12.2269 405.804 12.3471 405.503 12.3481Z" fill="#3F3D56"/>
<path d="M293.065 44.8286H33.5481V200.543H293.065V44.8286Z" fill="#F0F0F0"/>
<path d="M406.639 44.8286H324.865V93.8939H406.639V44.8286Z" fill="#F0F0F0"/>
<path d="M390.325 116.434H341.67C341.062 116.434 340.479 116.193 340.049 115.763C339.619 115.332 339.378 114.749 339.378 114.141C339.378 113.533 339.619 112.949 340.049 112.519C340.479 112.089 341.062 111.847 341.67 111.847H390.325C390.932 111.847 391.515 112.089 391.945 112.519C392.375 112.949 392.616 113.533 392.616 114.141C392.616 114.749 392.375 115.332 391.945 115.763C391.515 116.193 390.932 116.434 390.325 116.434H390.325Z" fill="#E4E4E4"/>
<path d="M382.48 108.584H349.514C348.907 108.584 348.324 108.342 347.894 107.912C347.464 107.482 347.223 106.899 347.223 106.29C347.223 105.682 347.464 105.099 347.894 104.669C348.324 104.238 348.907 103.997 349.514 103.997H382.48C383.088 103.997 383.671 104.238 384.1 104.669C384.53 105.099 384.772 105.682 384.772 106.29C384.772 106.899 384.53 107.482 384.1 107.912C383.671 108.342 383.088 108.584 382.48 108.584Z" fill="#E4E4E4"/>
<path d="M406.639 134.052H324.865V183.117H406.639V134.052Z" fill="#F0F0F0"/>
<path d="M390.325 205.657H341.67C341.062 205.657 340.479 205.416 340.049 204.986C339.619 204.556 339.378 203.972 339.378 203.364C339.378 202.756 339.619 202.172 340.049 201.742C340.479 201.312 341.062 201.071 341.67 201.071H390.325C390.932 201.071 391.515 201.312 391.945 201.742C392.375 202.172 392.616 202.756 392.616 203.364C392.616 203.972 392.375 204.556 391.945 204.986C391.515 205.416 390.932 205.657 390.325 205.657H390.325Z" fill="#E4E4E4"/>
<path d="M382.48 197.807H349.514C348.907 197.807 348.324 197.565 347.894 197.135C347.464 196.705 347.223 196.121 347.223 195.513C347.223 194.905 347.464 194.322 347.894 193.891C348.324 193.461 348.907 193.22 349.514 193.22H382.48C383.087 193.221 383.669 193.463 384.098 193.893C384.527 194.323 384.768 194.906 384.768 195.513C384.768 196.121 384.527 196.704 384.098 197.134C383.669 197.564 383.087 197.806 382.48 197.807Z" fill="#E4E4E4"/>
<path d="M167.816 128.597C178.512 128.597 187.182 119.92 187.182 109.216C187.182 98.5126 178.512 89.8357 167.816 89.8357C157.121 89.8357 148.45 98.5126 148.45 109.216C148.45 119.92 157.121 128.597 167.816 128.597Z" fill="#9E616A"/>
<path d="M200.445 200.543H151.887L154.612 139.093L154.947 138.74L159.769 133.648H175.101L180.791 139.16L181.24 139.598L193.347 151.208L200.445 200.543Z" fill="#7B2CBF"/>
<path d="M165.328 200.543H128.422C128.178 177.026 127.985 159.284 127.985 159.284L129.87 158.136L129.882 158.13L150.58 145.554L154.925 138.49L154.947 138.74L156.225 153.63C156.225 153.63 163.17 176.083 165.328 200.543Z" fill="#2F2E41"/>
<path d="M215.545 200.543H182.705C180.95 192.575 180.036 184.988 180.434 178.663C182.046 152.823 178.327 138.49 179.939 138.49L180.791 139.161L190.922 147.168L204.261 152.061L213.517 155.459L215.13 156.05V156.829C215.136 160.739 215.176 178.896 215.545 200.543Z" fill="#2F2E41"/>
<path d="M149.495 115.28C149.495 115.28 151.14 112.388 150.758 102.728C150.375 93.0672 165.074 98.531 177.357 97.6094C189.64 96.6878 187.04 113.738 187.04 113.738C187.04 113.738 187.926 112.724 189.823 104.495C191.72 96.2667 187.413 88.0664 187.413 88.0664C186.144 79.4196 179.307 82.1909 179.307 82.1909C182.6 83.4737 181.967 86.2166 181.967 86.2166C179.18 81.3263 172.343 84.0976 172.343 84.0976C163.224 78.3709 153.982 85.9122 153.982 85.9122C142.966 88.4142 149.427 97.1815 149.427 97.1815C138.348 102.784 149.495 115.28 149.495 115.28Z" fill="#2F2E41"/>
<path d="M117.729 200.543C118.672 181.681 119.393 166.882 119.109 165.74C118.314 162.563 129.529 158.261 129.87 158.136L129.876 158.13H129.882L132.022 159.284L133.59 200.543H117.729Z" fill="#2F2E41"/>
<path d="M223.268 200.543H206.601L201.831 153.391L203.796 151.953C203.796 151.953 203.966 151.993 204.261 152.061C205.789 152.442 210.718 153.732 213.517 155.46C214.137 155.81 214.684 156.274 215.13 156.829C215.403 157.156 215.539 157.575 215.511 158C215.369 159.335 219.003 178.214 223.268 200.543Z" fill="#2F2E41"/>
<path d="M251.326 219.581H75.2866C74.6096 219.582 73.9607 219.852 73.4823 220.331C73.004 220.811 72.7354 221.461 72.7354 222.138C72.7354 222.816 73.004 223.466 73.4823 223.945C73.9607 224.424 74.6096 224.694 75.2866 224.695H251.326C251.662 224.696 251.995 224.63 252.306 224.502C252.616 224.374 252.898 224.185 253.136 223.948C253.374 223.71 253.562 223.428 253.691 223.118C253.82 222.807 253.886 222.474 253.886 222.138C253.886 221.802 253.82 221.469 253.691 221.159C253.562 220.848 253.374 220.566 253.136 220.328C252.898 220.091 252.616 219.903 252.306 219.774C251.995 219.646 251.662 219.58 251.326 219.581Z" fill="#CACACA"/>
<path d="M203.625 219.581V224.695H75.2866C74.6096 224.694 73.9607 224.424 73.4823 223.945C73.004 223.466 72.7354 222.816 72.7354 222.138C72.7354 221.461 73.004 220.811 73.4823 220.331C73.9607 219.852 74.6096 219.582 75.2866 219.581H203.625Z" fill="#3F3D56"/>
<path d="M203.625 227.253C206.448 227.253 208.736 224.963 208.736 222.138C208.736 219.313 206.448 217.023 203.625 217.023C200.803 217.023 198.514 219.313 198.514 222.138C198.514 224.963 200.803 227.253 203.625 227.253Z" fill="#3F3D56"/>
<path d="M163.306 264.761C161.22 264.761 159.18 264.141 157.445 262.981C155.71 261.821 154.358 260.172 153.559 258.243C152.761 256.314 152.552 254.191 152.959 252.143C153.366 250.095 154.371 248.213 155.846 246.737C157.322 245.26 159.202 244.255 161.248 243.847C163.295 243.44 165.416 243.649 167.344 244.448C169.272 245.247 170.919 246.601 172.078 248.337C173.238 250.073 173.856 252.114 173.856 254.203C173.853 257.002 172.741 259.685 170.763 261.665C168.785 263.644 166.103 264.757 163.306 264.761ZM163.306 244.457C161.38 244.457 159.497 245.028 157.896 246.099C156.294 247.17 155.046 248.692 154.309 250.473C153.572 252.254 153.379 254.213 153.755 256.104C154.131 257.994 155.058 259.731 156.42 261.094C157.782 262.457 159.517 263.385 161.407 263.761C163.296 264.137 165.254 263.944 167.033 263.207C168.813 262.469 170.334 261.22 171.404 259.617C172.474 258.014 173.045 256.13 173.045 254.203C173.042 251.619 172.015 249.142 170.189 247.314C168.364 245.487 165.888 244.46 163.306 244.457V244.457Z" fill="#7B2CBF"/>
<path d="M161.913 259.888C161.806 259.888 161.702 259.845 161.626 259.769C161.55 259.693 161.507 259.589 161.507 259.482V248.924C161.507 248.87 161.517 248.817 161.537 248.767C161.557 248.717 161.587 248.672 161.625 248.634C161.662 248.596 161.707 248.565 161.757 248.545C161.806 248.524 161.859 248.513 161.913 248.513C161.967 248.513 162.02 248.524 162.069 248.545C162.119 248.565 162.164 248.596 162.202 248.634C162.239 248.672 162.269 248.717 162.289 248.767C162.309 248.817 162.319 248.87 162.319 248.924V259.482C162.319 259.589 162.276 259.693 162.2 259.769C162.124 259.845 162.021 259.888 161.913 259.888Z" fill="#7B2CBF"/>
<path d="M164.7 259.888C164.592 259.888 164.489 259.845 164.413 259.769C164.337 259.692 164.294 259.589 164.294 259.481V248.923C164.293 248.87 164.304 248.817 164.324 248.767C164.344 248.717 164.374 248.672 164.411 248.634C164.449 248.596 164.494 248.566 164.544 248.545C164.593 248.524 164.646 248.514 164.7 248.514C164.753 248.514 164.806 248.524 164.856 248.545C164.905 248.566 164.95 248.596 164.988 248.634C165.026 248.672 165.056 248.717 165.076 248.767C165.096 248.817 165.106 248.87 165.106 248.923V259.482C165.106 259.589 165.063 259.692 164.987 259.769C164.911 259.845 164.807 259.888 164.7 259.888Z" fill="#7B2CBF"/>
<path d="M114.985 254.203C114.985 252.114 115.603 250.073 116.763 248.337C117.922 246.601 119.57 245.247 121.497 244.448C123.425 243.649 125.546 243.44 127.593 243.847C129.639 244.255 131.519 245.26 132.995 246.737C134.47 248.213 135.475 250.095 135.882 252.143C136.289 254.191 136.08 256.314 135.282 258.243C134.483 260.172 133.131 261.821 131.396 262.981C129.661 264.141 127.621 264.761 125.535 264.761C122.738 264.757 120.056 263.644 118.078 261.665C116.1 259.685 114.988 257.002 114.985 254.203ZM115.796 254.203C115.796 256.13 116.367 258.014 117.437 259.617C118.508 261.22 120.028 262.469 121.808 263.207C123.587 263.944 125.546 264.137 127.435 263.761C129.324 263.385 131.059 262.457 132.421 261.094C133.783 259.731 134.71 257.994 135.086 256.104C135.462 254.213 135.269 252.254 134.532 250.473C133.795 248.692 132.547 247.17 130.945 246.099C129.344 245.028 127.461 244.457 125.535 244.457C122.953 244.46 120.477 245.487 118.652 247.314C116.826 249.142 115.799 251.619 115.796 254.203H115.796Z" fill="#3F3D56"/>
<path d="M130.092 257.757C130.166 257.757 130.238 257.733 130.297 257.688C130.356 257.642 130.398 257.579 130.418 257.507C130.437 257.435 130.432 257.359 130.404 257.29C130.375 257.222 130.325 257.164 130.261 257.127L125.199 254.202L130.261 251.278C130.338 251.233 130.395 251.159 130.418 251.073C130.441 250.986 130.429 250.894 130.384 250.817C130.339 250.739 130.266 250.682 130.179 250.659C130.093 250.636 130.001 250.648 129.923 250.693L124.355 253.91C124.304 253.94 124.261 253.982 124.232 254.034C124.202 254.085 124.187 254.143 124.187 254.202C124.187 254.262 124.202 254.32 124.232 254.371C124.261 254.423 124.304 254.465 124.355 254.495L129.923 257.712C129.974 257.742 130.032 257.757 130.092 257.757Z" fill="#3F3D56"/>
<path d="M122.626 258.93C122.716 258.93 122.801 258.895 122.865 258.831C122.928 258.768 122.963 258.682 122.963 258.593V249.813C122.963 249.723 122.928 249.637 122.865 249.574C122.801 249.51 122.716 249.475 122.626 249.475C122.537 249.475 122.451 249.51 122.387 249.574C122.324 249.637 122.289 249.723 122.289 249.813V258.593C122.289 258.682 122.324 258.768 122.387 258.831C122.451 258.895 122.537 258.93 122.626 258.93Z" fill="#3F3D56"/>
<path d="M201.078 264.761C198.992 264.761 196.952 264.141 195.217 262.981C193.482 261.821 192.13 260.172 191.331 258.243C190.533 256.314 190.324 254.191 190.731 252.143C191.138 250.095 192.143 248.213 193.618 246.737C195.094 245.26 196.973 244.255 199.02 243.847C201.066 243.44 203.188 243.649 205.115 244.448C207.043 245.247 208.691 246.601 209.85 248.337C211.009 250.073 211.628 252.114 211.628 254.203C211.625 257.002 210.512 259.685 208.535 261.665C206.557 263.644 203.875 264.757 201.078 264.761ZM201.078 244.457C199.152 244.457 197.269 245.028 195.668 246.099C194.066 247.17 192.818 248.692 192.081 250.473C191.344 252.254 191.151 254.213 191.527 256.104C191.903 257.994 192.83 259.731 194.192 261.094C195.554 262.457 197.289 263.385 199.178 263.761C201.067 264.137 203.025 263.944 204.805 263.207C206.584 262.469 208.105 261.22 209.175 259.617C210.245 258.014 210.817 256.13 210.817 254.203C210.814 251.619 209.787 249.142 207.961 247.314C206.135 245.487 203.66 244.46 201.078 244.457V244.457Z" fill="#3F3D56"/>
<path d="M196.521 257.757C196.447 257.757 196.375 257.733 196.316 257.687C196.257 257.642 196.214 257.579 196.195 257.507C196.176 257.435 196.181 257.359 196.209 257.29C196.238 257.221 196.288 257.164 196.352 257.127L201.414 254.202L196.352 251.278C196.275 251.233 196.219 251.159 196.196 251.073C196.173 250.986 196.185 250.895 196.23 250.817C196.274 250.74 196.348 250.683 196.434 250.66C196.52 250.637 196.612 250.648 196.69 250.693L202.257 253.91C202.309 253.94 202.351 253.982 202.381 254.034C202.41 254.085 202.426 254.143 202.426 254.202C202.426 254.262 202.41 254.32 202.381 254.371C202.351 254.423 202.309 254.465 202.257 254.495L196.69 257.712C196.638 257.742 196.58 257.757 196.521 257.757Z" fill="#3F3D56"/>
<path d="M203.987 258.93C203.897 258.93 203.812 258.895 203.748 258.831C203.685 258.768 203.649 258.682 203.649 258.593V249.813C203.649 249.723 203.685 249.637 203.748 249.574C203.812 249.51 203.897 249.475 203.987 249.475C204.076 249.475 204.162 249.51 204.225 249.574C204.289 249.637 204.324 249.723 204.324 249.813V258.593C204.324 258.682 204.289 258.768 204.225 258.831C204.162 258.895 204.076 258.93 203.987 258.93Z" fill="#3F3D56"/>
<path d="M61.8125 262.16C61.2548 261.601 60.8265 260.926 60.5576 260.184C60.2886 259.441 60.1857 258.648 60.256 257.861C60.3263 257.075 60.5681 256.313 60.9645 255.63C61.3608 254.947 61.902 254.359 62.5499 253.908L57.3591 235.422L66.8574 238.457L70.3305 255.546C71.0157 256.685 71.2595 258.037 71.0156 259.344C70.7717 260.651 70.0571 261.824 69.0071 262.639C67.9572 263.454 66.6448 263.856 65.3188 263.768C63.9928 263.679 62.7452 263.107 61.8125 262.16Z" fill="#FFB6B6"/>
<path d="M59.2738 170.061L57.3063 168.011C57.3063 168.011 51.2232 172.193 52.5103 185.155C53.461 194.729 50.4568 198.789 50.7926 226.617L59.2738 252.102L69.0835 246.956L61.9863 215.511L59.2738 170.061Z" fill="#7B2CBF"/>
<path d="M66.6328 376.898H73.6667L77.0133 349.746L66.6315 349.747L66.6328 376.898Z" fill="#FFB6B6"/>
<path d="M64.8387 374.6L78.691 374.599H78.6916C81.0328 374.599 83.2781 375.53 84.9336 377.187C86.5891 378.843 87.5192 381.09 87.5194 383.433V383.721L64.8392 383.721L64.8387 374.6Z" fill="#2F2E41"/>
<path d="M87.1459 374.405L94.1276 375.261L100.752 348.72L90.4477 347.456L87.1459 374.405Z" fill="#FFB6B6"/>
<path d="M85.6444 371.905L99.3937 373.592L99.3943 373.592C101.718 373.877 103.833 375.075 105.275 376.921C106.717 378.767 107.367 381.111 107.082 383.436L107.047 383.721L84.5352 380.959L85.6444 371.905Z" fill="#2F2E41"/>
<path d="M62.9871 237.688C62.9871 237.688 49.4375 246.956 56.212 272.04L65.3735 369.407L76.258 369.33L80.8682 321.286L84.0014 287.462L94.4704 322.439L85.8596 365.356L98.5683 366.695L113.795 316.785L106.452 245.726L62.9871 237.688Z" fill="#2F2E41"/>
<path d="M95.6806 165.381L88.7909 159.835L70.5202 159.083L57.3062 168.011C57.3062 168.011 55.9422 199.805 64.8839 228.126L60.196 239.956L107.068 245.841L95.6806 165.381Z" fill="#7B2CBF"/>
<path d="M80.9084 152.278C89.5638 152.278 96.5804 145.256 96.5804 136.594C96.5804 127.932 89.5638 120.91 80.9084 120.91C72.2529 120.91 65.2363 127.932 65.2363 136.594C65.2363 145.256 72.2529 152.278 80.9084 152.278Z" fill="#FFB6B6"/>
<path d="M85.0195 117.207H81.5367C79.1099 116.483 76.5477 116.336 74.0543 116.778C71.5608 117.221 69.2051 118.239 67.1747 119.754C65.1443 121.268 63.4955 123.236 62.3595 125.501C61.2235 127.766 60.6318 130.265 60.6315 132.8L55.2073 150.713C55.0509 151.229 55.0175 151.775 55.1098 152.307C55.2022 152.839 55.4177 153.341 55.739 153.775C56.0604 154.208 56.4787 154.561 56.9605 154.803C57.4423 155.046 57.9741 155.172 58.5134 155.172H61.161C62.2697 153.592 62.7533 151.656 62.5182 149.74C63.0106 150.94 63.3556 152.195 63.5457 153.478C63.6071 154.042 63.5954 154.611 63.5109 155.172H86.5444C86.6934 152.911 85.945 150.683 84.4618 148.971C86.3176 150.826 87.9305 152.91 89.2618 155.172H89.6945C90.6106 155.172 91.4893 154.808 92.1371 154.16C92.7849 153.511 93.1488 152.632 93.1489 151.715V134.155H101.956C101.956 131.93 101.518 129.726 100.666 127.669C99.8153 125.613 98.5678 123.745 96.9951 122.171C95.4225 120.597 93.5554 119.348 91.5007 118.497C89.4459 117.645 87.2436 117.207 85.0195 117.207Z" fill="#2F2E41"/>
<path d="M102.459 260.804C101.902 260.245 101.473 259.57 101.204 258.828C100.935 258.085 100.832 257.292 100.903 256.506C100.973 255.719 101.215 254.957 101.611 254.274C102.008 253.591 102.549 253.003 103.197 252.552L98.0059 234.066L107.504 237.101L110.977 254.19C111.662 255.329 111.906 256.681 111.662 257.988C111.418 259.296 110.704 260.468 109.654 261.283C108.604 262.099 107.292 262.5 105.966 262.412C104.64 262.323 103.392 261.751 102.459 260.804Z" fill="#FFB6B6"/>
<path d="M89.7393 168.889L95.6805 165.381C95.6805 165.381 105.025 163.732 106.023 176.192C107.02 188.651 108.457 220.994 108.457 220.994L111.372 248.258L100.556 250.566L88.1239 213.282L89.7393 168.889Z" fill="#7B2CBF"/>
<path d="M144.296 385H0.677445C0.497776 385 0.325475 384.929 0.198429 384.801C0.0713833 384.674 0 384.502 0 384.322C0 384.142 0.0713833 383.97 0.198429 383.843C0.325475 383.715 0.497776 383.644 0.677445 383.644H144.296C144.476 383.644 144.648 383.715 144.775 383.843C144.902 383.97 144.973 384.142 144.973 384.322C144.973 384.502 144.902 384.674 144.775 384.801C144.648 384.929 144.476 385 144.296 385Z" fill="#CACACA"/>
</svg>
