<svg width="845" height="332" viewBox="0 0 845 332" fill="none" xmlns="http://www.w3.org/2000/svg">
<g clip-path="url(#clip0_284_280)">
<path d="M133.287 200.8C132.547 200.834 131.815 200.64 131.189 200.244C130.563 199.847 130.074 199.268 129.788 198.585C129.502 197.901 129.433 197.146 129.591 196.422C129.748 195.698 130.125 195.04 130.669 194.538C130.76 194.175 130.825 193.915 130.916 193.553C130.208 191.754 128.979 190.207 127.386 189.111C125.793 188.015 123.909 187.42 121.975 187.402C120.042 187.384 118.147 187.943 116.533 189.009C114.92 190.075 113.661 191.598 112.919 193.383C108.637 203.407 103.095 213.784 105.851 224.824C87.6451 186.238 93.8365 138.242 120.743 105.244C128.18 101.147 134.208 93.8683 135.777 85.4167C132.096 86.6639 127.507 83.67 130.275 79.7929C131.474 78.3111 132.685 76.841 133.885 75.3591C119.903 60.4687 103.244 83.8711 118.634 103.969C113.599 110.281 109.239 117.102 105.623 124.32C106.458 116.655 105.461 108.901 102.715 101.696C99.9311 94.9812 94.7139 89.326 90.1195 83.521C84.5335 76.4479 73.0365 79.711 72.2848 88.6869C77.4401 90.3813 78.1098 97.8281 72.2128 98.8473C73.7574 115.545 84.6663 130.89 99.6911 138.214C94.1426 153.782 91.976 170.354 93.3357 186.825C90.6837 167.575 70.02 162.904 55.5771 155.253C54.6579 154.663 53.587 154.354 52.495 154.363C51.403 154.371 50.3372 154.698 49.4275 155.302C48.5178 155.906 47.8036 156.762 47.372 157.765C46.9405 158.768 46.8102 159.875 46.997 160.951C48.9905 161.762 50.8984 162.768 52.6929 163.956C53.5337 164.521 54.1791 165.333 54.5406 166.279C54.9021 167.226 54.962 168.261 54.7121 169.243C54.4623 170.225 53.9148 171.105 53.1448 171.764C52.3748 172.422 51.42 172.827 50.4112 172.921C57.6914 190.939 76.5135 203.039 95.845 202.971C97.7027 211.043 100.394 218.901 103.877 226.418H132.568C132.671 226.099 132.764 225.77 132.856 225.451C130.201 225.618 127.534 225.459 124.917 224.978C131.944 216.659 137.378 212.414 133.288 200.801L133.287 200.8Z" fill="#F2F2F2"/>
<path d="M723.388 200.8C724.128 200.834 724.861 200.64 725.487 200.244C726.113 199.847 726.602 199.268 726.888 198.585C727.173 197.901 727.242 197.146 727.085 196.422C726.927 195.698 726.551 195.04 726.007 194.538C725.916 194.175 725.85 193.915 725.759 193.553C726.467 191.754 727.697 190.207 729.29 189.111C730.883 188.015 732.767 187.42 734.7 187.402C736.634 187.384 738.529 187.943 740.142 189.009C741.756 190.075 743.014 191.598 743.756 193.383C748.038 203.407 753.58 213.784 750.824 224.824C769.03 186.238 762.839 138.242 735.933 105.244C728.496 101.147 722.468 93.8683 720.898 85.4167C724.579 86.6639 729.168 83.67 726.401 79.7929C725.201 78.3111 723.99 76.841 722.791 75.3591C736.772 60.4687 753.431 83.8711 738.042 103.969C743.076 110.281 747.437 117.102 751.053 124.32C750.218 116.655 751.214 108.901 753.961 101.696C756.744 94.9812 761.961 89.326 766.556 83.521C772.142 76.4479 783.639 79.711 784.391 88.6869C779.235 90.3813 778.566 97.8281 784.463 98.8473C782.918 115.545 772.009 130.89 756.984 138.214C762.533 153.782 764.699 170.354 763.34 186.825C765.992 167.575 786.655 162.904 801.098 155.253C802.017 154.663 803.088 154.354 804.18 154.363C805.272 154.371 806.338 154.698 807.248 155.302C808.158 155.906 808.872 156.762 809.303 157.765C809.735 158.768 809.865 159.875 809.678 160.951C807.685 161.762 805.777 162.768 803.982 163.956C803.142 164.521 802.496 165.333 802.135 166.279C801.773 167.226 801.713 168.261 801.963 169.243C802.213 170.225 802.761 171.105 803.531 171.764C804.3 172.422 805.255 172.827 806.264 172.921C798.984 190.939 780.162 203.039 760.83 202.971C758.973 211.043 756.281 218.901 752.799 226.418H724.107C724.004 226.099 723.912 225.77 723.819 225.451C726.475 225.618 729.141 225.459 731.758 224.978C724.732 216.659 719.298 212.414 723.387 200.801L723.388 200.8Z" fill="#F2F2F2"/>
<path d="M5.29652e-06 227.163C-0.0004621 227.32 0.0300094 227.475 0.0896507 227.619C0.149292 227.764 0.236938 227.895 0.347539 228.006C0.458141 228.116 0.58951 228.204 0.734106 228.264C0.878701 228.323 1.03366 228.354 1.19007 228.353H843.48C843.796 228.353 844.098 228.228 844.322 228.005C844.545 227.782 844.67 227.479 844.67 227.163C844.67 226.848 844.545 226.545 844.322 226.322C844.098 226.099 843.796 225.973 843.48 225.973H1.19001C1.03361 225.973 0.878661 226.003 0.734075 226.063C0.58949 226.123 0.458118 226.21 0.347524 226.321C0.236931 226.431 0.149291 226.563 0.0896507 226.707C0.0300108 226.852 -0.000455426 227.007 5.29652e-06 227.163Z" fill="#CCCCCC"/>
<path d="M148.504 210.641C148.105 204.794 148.103 199.212 147.988 194.908C147.755 186.142 166.662 186.767 176.828 186.497L213.741 184.747C223.907 184.476 232.367 191.388 232.6 200.155C232.834 208.921 224.752 216.273 214.586 216.544C199.654 229.505 188.072 230.135 167.588 229.269C162.672 229.059 158.005 227.042 154.484 223.605C150.962 220.167 148.833 215.551 148.504 210.641Z" fill="#2F2E41"/>
<path d="M233.383 311.33L243.959 313.058L255.657 273.087L240.048 270.537L233.383 311.33Z" fill="#FFB6B6"/>
<path d="M237.584 227.983C217.865 232.831 203.305 227.371 191.312 228.079C184.495 216.576 162.734 201.965 174.608 195.815C181.22 192.39 248.436 184.494 257.26 193.607C269.684 206.437 267.948 229.775 263.835 248.266C263.725 248.759 263.613 249.249 263.5 249.735C263.292 250.633 263.079 251.517 262.861 252.388C262.588 253.485 260.695 253.467 260.413 254.514C260.015 255.992 261.223 258.508 260.821 259.868C260.133 262.199 258.05 264.39 258.814 266.246C260.924 271.364 256.568 275.344 255.413 275.514L239.413 271.514C238.283 271.248 235.632 268.44 239.87 265.975C241.07 265.277 240.057 262.992 240.135 261.24C240.183 260.163 240.225 259.027 240.259 257.847C240.303 256.278 240.33 254.629 240.334 252.932C240.349 244.558 239.765 234.998 237.584 227.983Z" fill="#2F2E41"/>
<path d="M234.308 296.48L249.991 299.692L248.22 306.305L260.181 320.37C260.772 321.064 261.126 321.93 261.19 322.839C261.254 323.749 261.026 324.655 260.539 325.426C260.051 326.197 259.33 326.792 258.481 327.124C257.632 327.456 256.699 327.508 255.818 327.272L237.441 322.351L236.025 314.961L233.036 321.172L226.107 319.316L234.308 296.48Z" fill="#2F2E41"/>
<path d="M116.248 241.73L117.163 252.407L158.782 253.959L157.431 238.2L116.248 241.73Z" fill="#FFB6B6"/>
<path d="M217.498 220.488C199.309 213.826 192.508 197.59 186.661 180.552C196.144 171.125 209.199 156.991 218.069 166.996C223.01 172.568 262.32 220.358 255.646 231.145C245.378 247.741 211.871 252.844 186.611 254.265C185.067 254.352 183.555 254.425 182.077 254.486C180.719 254.542 179.396 254.589 178.107 254.626C172.889 254.777 167.39 252.357 164.688 254.742C159.82 259.039 156.574 256.967 156.414 254.514L155.414 237.514C154.685 234.779 162.351 232.487 165.414 235.514C167.614 237.689 166.675 235.217 172.45 233.901C186.411 230.72 205.722 225.78 217.498 220.488Z" fill="#2F2E41"/>
<path d="M130.873 238.991L131.6 254.982L124.755 254.885L114.048 269.927C113.519 270.67 112.767 271.225 111.901 271.51C111.035 271.795 110.1 271.796 109.233 271.512C108.367 271.228 107.613 270.675 107.083 269.933C106.553 269.191 106.275 268.298 106.288 267.387L106.557 248.364L113.375 245.181L106.622 243.805L106.724 236.633L130.873 238.991Z" fill="#2F2E41"/>
<path d="M155.027 199.486C154.982 199.407 154.96 199.316 154.962 199.225C154.965 199.133 154.993 199.044 155.043 198.968C148.9 198.74 142.803 200.146 144.414 194.514C144.644 193.71 150.173 187.826 150.495 186.944C150.774 186.179 149.077 182.332 149.414 181.514C150.076 179.911 152.847 181.265 153.668 179.489C153.958 178.865 152.112 177.157 152.414 176.514C152.699 175.91 155.13 176.372 155.423 175.753C160.925 164.129 167.674 150.103 165.899 138.517C163.65 123.835 163.992 103 163.557 89.8237C163.473 87.208 164.264 84.6388 165.805 82.5233C167.345 80.4077 169.548 78.8666 172.063 78.1441C176.076 76.9774 180.887 74.9209 184.08 71.3618C184.915 70.4304 185.016 72.1003 185.123 69.8298C185.253 67.0643 185.387 64.2044 186.864 62.7279L186.928 62.6642L187.014 62.6349C193.229 60.5646 203.725 61.9038 206.845 62.6252L206.98 62.6567L207.064 62.7677C208.355 64.4698 208.283 67.1933 208.215 69.8268C208.153 72.1963 208.094 70.6202 209.145 71.2951C209.957 71.8178 210.738 72.3174 211.487 72.7941C220.725 78.6864 225.362 81.6446 228.759 91.2697C229.833 94.0666 230.237 97.0761 229.939 100.057C228.726 109.689 223.58 180.289 221.519 182.75C220.984 183.389 222.374 184.499 222.949 185.327C223.775 186.517 221.151 187.543 220.74 188.329C220.46 188.864 219.737 189.114 218.464 189.114C213.665 189.114 156.424 202.097 155.027 199.486Z" fill="white"/>
<path d="M195.085 159.966C196.873 161.089 193.374 163.789 191.262 163.789C190.248 163.789 189.276 163.386 188.559 162.669C187.842 161.952 187.439 160.98 187.439 159.966C187.439 157.855 189.808 152.838 190.784 154.71C191.051 155.221 192.752 158.501 195.085 159.966Z" fill="#7B2CBF"/>
<path d="M201.296 159.966C203.084 161.089 199.585 163.789 197.473 163.789C196.459 163.789 195.487 163.386 194.77 162.669C194.053 161.952 193.65 160.98 193.65 159.966C193.65 157.855 196.019 152.838 196.995 154.71C197.262 155.221 198.963 158.501 201.296 159.966Z" fill="#7B2CBF"/>
<path d="M198.328 159.108C196.306 158.502 198.96 154.967 200.995 154.405C201.479 154.271 201.984 154.234 202.482 154.296C202.98 154.357 203.462 154.517 203.898 154.764C204.335 155.012 204.719 155.343 205.028 155.739C205.336 156.135 205.564 156.587 205.698 157.071C206.26 159.106 205.314 164.573 203.874 163.029C203.481 162.607 200.968 159.898 198.328 159.108Z" fill="#7B2CBF"/>
<path d="M222.323 159.966C224.112 161.089 220.612 163.789 218.501 163.789C217.487 163.789 216.514 163.386 215.797 162.669C215.08 161.952 214.678 160.98 214.678 159.966C214.678 157.855 217.046 152.838 218.023 154.71C218.289 155.221 219.99 158.501 222.323 159.966Z" fill="#7B2CBF"/>
<path d="M228.534 159.966C230.323 161.089 226.823 163.789 224.712 163.789C223.698 163.789 222.725 163.386 222.008 162.669C221.291 161.952 220.889 160.98 220.889 159.966C220.889 157.855 223.257 152.838 224.234 154.71C224.5 155.221 226.201 158.501 228.534 159.966Z" fill="#7B2CBF"/>
<path d="M225.567 159.108C223.544 158.502 226.198 154.967 228.233 154.405C229.21 154.135 230.255 154.264 231.137 154.764C232.019 155.264 232.666 156.094 232.936 157.071C233.498 159.106 232.552 164.573 231.112 163.029C230.719 162.607 228.206 159.898 225.567 159.108Z" fill="#7B2CBF"/>
<path d="M181.604 159.108C179.581 158.502 182.235 154.967 184.27 154.405C185.247 154.135 186.292 154.264 187.174 154.764C188.056 155.264 188.703 156.094 188.973 157.071C189.536 159.106 188.589 164.573 187.149 163.029C186.756 162.607 184.243 159.898 181.604 159.108Z" fill="#7B2CBF"/>
<path d="M208.788 163.194C207.933 165.124 204.76 162.047 204.457 159.958C204.312 158.954 204.572 157.934 205.178 157.122C205.785 156.31 206.69 155.772 207.693 155.627C209.783 155.325 215.088 156.95 213.375 158.185C212.907 158.522 209.904 160.675 208.788 163.194Z" fill="#7B2CBF"/>
<path d="M216.118 156.792C216.627 154.743 220.284 157.226 220.942 159.232C221.099 159.709 221.16 160.212 221.122 160.713C221.084 161.214 220.948 161.702 220.721 162.15C220.494 162.598 220.182 162.997 219.801 163.324C219.42 163.651 218.979 163.9 218.502 164.056C216.496 164.715 210.99 164.028 212.464 162.517C212.867 162.104 215.454 159.465 216.118 156.792Z" fill="#7B2CBF"/>
<path d="M213.251 153.925C213.76 151.876 217.417 154.359 218.075 156.365C218.232 156.842 218.293 157.345 218.255 157.846C218.217 158.347 218.081 158.835 217.854 159.283C217.627 159.731 217.315 160.13 216.934 160.457C216.553 160.784 216.112 161.033 215.635 161.189C213.628 161.848 208.123 161.161 209.597 159.65C210 159.237 212.587 156.598 213.251 153.925Z" fill="#7B2CBF"/>
<path d="M176.893 173.09L181.383 187.732C181.854 190.268 183.198 192.559 185.181 194.208C187.164 195.858 189.662 196.761 192.242 196.761H224.015C226.635 196.769 229.171 195.842 231.168 194.147C233.166 192.452 234.493 190.1 234.911 187.515L234.922 187.467L238.9 172.89C239.14 171.415 239.057 169.905 238.655 168.466C238.254 167.026 237.545 165.691 236.577 164.553C235.608 163.415 234.404 162.501 233.048 161.874C231.692 161.247 230.215 160.922 228.721 160.922H187.038C185.526 160.922 184.033 161.254 182.664 161.895C181.296 162.536 180.084 163.47 179.116 164.631C178.149 165.792 177.448 167.151 177.063 168.613C176.679 170.075 176.621 171.603 176.893 173.09V173.09Z" fill="#CCCCCC"/>
<path d="M205.085 146.251L232.635 139.265L236.917 153.44C236.917 153.44 207.278 155.635 206.17 155.645C205.342 156.817 204.177 157.711 202.83 158.207C201.483 158.703 200.017 158.778 198.626 158.423C197.235 158.068 195.985 157.299 195.04 156.217C194.096 155.136 193.503 153.793 193.338 152.367C193.173 150.941 193.445 149.499 194.118 148.231C194.791 146.963 195.833 145.929 197.107 145.266C198.38 144.603 199.824 144.342 201.249 144.518C202.674 144.694 204.012 145.299 205.085 146.251Z" fill="#FFB6B6"/>
<path d="M223.471 81.9712C243.114 92.4678 245.722 115.867 257.774 136.432C258.827 145.941 257.477 154.298 247.911 154.467L243.414 155.514L240.143 154.646L238.414 156.514L234.753 154.77L230.525 155.579L221.76 155.781L227.29 140.463L235.176 135.982L225.855 113.434L223.471 81.9712Z" fill="white"/>
<path d="M163.44 43.6155C166.645 39.447 164.375 33.4839 164.272 28.2007C164.079 18.3423 172.787 9.66586 182.243 8.38268C191.7 7.09953 201.127 12.0534 207.359 19.4002C213.467 26.6022 218.05 30.3769 221.356 39.3607C222.465 42.3732 222.434 50.9484 222.049 54.173C221.664 57.3975 219.224 60.6447 216.096 60.6701C216.255 61.2963 216.239 61.9542 216.05 62.572C215.861 63.1898 215.506 63.744 215.024 64.1741C214.542 64.6042 213.951 64.8939 213.316 65.0115C212.68 65.1292 212.025 65.0703 211.421 64.8413C205.975 62.4674 194.845 63.1484 194.845 63.1484C184.973 61.5236 175.102 59.8988 165.23 58.274C162.701 57.8577 160.08 57.4072 158.146 55.525C157.606 55.0225 157.182 54.4093 156.902 53.7274C156.622 53.0455 156.493 52.3111 156.524 51.5746C156.781 47.755 161.23 46.4895 163.44 43.6155Z" fill="#2F2E41"/>
<path d="M195.994 62.0509C206.783 62.0509 215.53 53.3041 215.53 42.5143C215.53 31.7245 206.783 22.9777 195.994 22.9777C185.204 22.9777 176.457 31.7245 176.457 42.5143C176.457 53.3041 185.204 62.0509 195.994 62.0509Z" fill="#FFB6B6"/>
<path d="M207.792 38.8726L182.232 32.6838C181.13 32.4227 180.175 31.7421 179.568 30.7868C178.961 29.8316 178.751 28.6772 178.983 27.5694C179.516 25.1485 180.523 22.8567 181.943 20.8251C183.364 18.7936 185.172 17.0622 187.262 15.7301C189.353 14.398 191.686 13.4913 194.128 13.062C196.57 12.6327 199.072 12.6892 201.492 13.2282L209.061 14.9234C211.496 15.4688 213.8 16.4885 215.841 17.9242C217.882 19.36 219.621 21.1837 220.957 23.2913C222.293 25.3989 223.202 27.749 223.63 30.2075C224.058 32.666 223.997 35.1848 223.452 37.62L223.293 37.6855C218.524 39.6598 213.261 40.1098 208.226 38.9737C208.081 38.9414 207.936 38.9075 207.792 38.8726Z" fill="#2F2E41"/>
<path d="M182.515 57.9714L177.759 48.2587C177.208 47.3776 176.952 46.3436 177.029 45.3071C177.22 44.2927 178.41 43.4276 179.295 43.9573C180.118 44.4488 188.104 32.7778 189.038 32.9898C190.006 33.2095 190.611 31.9887 190.841 31.0226C191.709 27.3619 187.842 30.6356 187.648 26.8783C187.453 23.121 182.927 25.3003 179.966 22.9787C177.006 20.6571 172.342 20.366 169.61 22.9536C167.585 24.8723 166.984 27.8198 166.578 30.5796C165.635 36.9839 165.182 43.4509 165.223 49.9241C165.233 51.5143 165.374 53.3201 166.615 54.3151C167.313 54.7907 168.112 55.0993 168.949 55.2171L179.123 57.443" fill="#2F2E41"/>
<path d="M176.712 19.2575C182.029 19.2575 186.339 14.947 186.339 9.62979C186.339 4.31255 182.029 0.0020752 176.712 0.0020752C171.394 0.0020752 167.084 4.31255 167.084 9.62979C167.084 14.947 171.394 19.2575 176.712 19.2575Z" fill="#2F2E41"/>
<path d="M332.951 138.443V224.147C332.952 225.239 333.386 226.286 334.159 227.058C334.931 227.831 335.978 228.265 337.07 228.266H464.075C465.167 228.265 466.214 227.831 466.986 227.058C467.759 226.286 468.193 225.239 468.194 224.147V138.443C468.191 137.351 467.756 136.306 466.984 135.534C466.212 134.763 465.166 134.33 464.075 134.328H337.07C335.979 134.33 334.933 134.763 334.161 135.534C333.389 136.306 332.954 137.351 332.951 138.443Z" fill="#3F3D56"/>
<path d="M335.932 139.509V223.089C335.933 223.673 336.165 224.232 336.578 224.645C336.99 225.057 337.55 225.29 338.133 225.291H463.019C463.602 225.29 464.161 225.058 464.574 224.645C464.987 224.232 465.219 223.673 465.22 223.089V139.509C465.22 138.925 464.988 138.364 464.575 137.951C464.163 137.537 463.603 137.304 463.019 137.303H338.133C337.549 137.304 336.989 137.537 336.576 137.951C336.164 138.364 335.932 138.925 335.932 139.509Z" fill="#7B2CBF"/>
<path d="M330.295 240.861C330.528 241.153 330.823 241.388 331.16 241.549C331.497 241.71 331.865 241.793 332.239 241.791H468.23C468.602 241.79 468.97 241.707 469.305 241.547C469.641 241.387 469.937 241.154 470.171 240.865C470.405 240.576 470.572 240.239 470.66 239.877C470.747 239.516 470.753 239.139 470.677 238.775L468.566 228.748C468.478 228.339 468.29 227.959 468.018 227.641C467.745 227.324 467.398 227.079 467.007 226.93C466.725 226.819 466.423 226.762 466.119 226.763H334.341C334.037 226.762 333.736 226.819 333.453 226.93C333.062 227.079 332.715 227.324 332.443 227.641C332.171 227.959 331.983 228.339 331.895 228.748L329.784 238.775C329.709 239.139 329.716 239.515 329.804 239.876C329.893 240.237 330.06 240.573 330.295 240.861Z" fill="#2F2E41"/>
<path d="M461.454 231.082H464.666C464.936 231.082 465.154 230.863 465.154 230.593V229.057C465.154 228.787 464.936 228.569 464.666 228.569H461.454C461.184 228.569 460.966 228.787 460.966 229.057V230.593C460.966 230.863 461.184 231.082 461.454 231.082Z" fill="#3F3D56"/>
<path d="M453.077 231.082H456.289C456.559 231.082 456.777 230.863 456.777 230.593V229.057C456.777 228.787 456.559 228.569 456.289 228.569H453.077C452.807 228.569 452.589 228.787 452.589 229.057V230.593C452.589 230.863 452.807 231.082 453.077 231.082Z" fill="#3F3D56"/>
<path d="M444.7 231.082H447.912C448.182 231.082 448.4 230.863 448.4 230.593V229.057C448.4 228.787 448.182 228.569 447.912 228.569H444.7C444.43 228.569 444.212 228.787 444.212 229.057V230.593C444.212 230.863 444.43 231.082 444.7 231.082Z" fill="#3F3D56"/>
<path d="M436.323 231.082H439.535C439.805 231.082 440.023 230.863 440.023 230.593V229.057C440.023 228.787 439.805 228.569 439.535 228.569H436.323C436.054 228.569 435.835 228.787 435.835 229.057V230.593C435.835 230.863 436.054 231.082 436.323 231.082Z" fill="#3F3D56"/>
<path d="M427.946 231.082H431.158C431.428 231.082 431.646 230.863 431.646 230.593V229.057C431.646 228.787 431.428 228.569 431.158 228.569H427.946C427.677 228.569 427.458 228.787 427.458 229.057V230.593C427.458 230.863 427.677 231.082 427.946 231.082Z" fill="#3F3D56"/>
<path d="M419.569 231.082H422.781C423.051 231.082 423.27 230.863 423.27 230.593V229.057C423.27 228.787 423.051 228.569 422.781 228.569H419.569C419.3 228.569 419.081 228.787 419.081 229.057V230.593C419.081 230.863 419.3 231.082 419.569 231.082Z" fill="#3F3D56"/>
<path d="M411.192 231.082H414.404C414.674 231.082 414.893 230.863 414.893 230.593V229.057C414.893 228.787 414.674 228.569 414.404 228.569H411.192C410.923 228.569 410.704 228.787 410.704 229.057V230.593C410.704 230.863 410.923 231.082 411.192 231.082Z" fill="#3F3D56"/>
<path d="M402.815 231.082H406.027C406.297 231.082 406.516 230.863 406.516 230.593V229.057C406.516 228.787 406.297 228.569 406.027 228.569H402.815C402.546 228.569 402.327 228.787 402.327 229.057V230.593C402.327 230.863 402.546 231.082 402.815 231.082Z" fill="#3F3D56"/>
<path d="M394.438 231.082H397.65C397.92 231.082 398.139 230.863 398.139 230.593V229.057C398.139 228.787 397.92 228.569 397.65 228.569H394.438C394.169 228.569 393.95 228.787 393.95 229.057V230.593C393.95 230.863 394.169 231.082 394.438 231.082Z" fill="#3F3D56"/>
<path d="M386.061 231.082H389.274C389.543 231.082 389.762 230.863 389.762 230.593V229.057C389.762 228.787 389.543 228.569 389.274 228.569H386.061C385.792 228.569 385.573 228.787 385.573 229.057V230.593C385.573 230.863 385.792 231.082 386.061 231.082Z" fill="#3F3D56"/>
<path d="M377.684 231.082H380.897C381.166 231.082 381.385 230.863 381.385 230.593V229.057C381.385 228.787 381.166 228.569 380.897 228.569H377.684C377.415 228.569 377.196 228.787 377.196 229.057V230.593C377.196 230.863 377.415 231.082 377.684 231.082Z" fill="#3F3D56"/>
<path d="M369.307 231.082H372.52C372.789 231.082 373.008 230.863 373.008 230.593V229.057C373.008 228.787 372.789 228.569 372.52 228.569H369.307C369.038 228.569 368.819 228.787 368.819 229.057V230.593C368.819 230.863 369.038 231.082 369.307 231.082Z" fill="#3F3D56"/>
<path d="M360.931 231.082H364.143C364.412 231.082 364.631 230.863 364.631 230.593V229.057C364.631 228.787 364.412 228.569 364.143 228.569H360.931C360.661 228.569 360.442 228.787 360.442 229.057V230.593C360.442 230.863 360.661 231.082 360.931 231.082Z" fill="#3F3D56"/>
<path d="M352.554 231.082H355.766C356.035 231.082 356.254 230.863 356.254 230.593V229.057C356.254 228.787 356.035 228.569 355.766 228.569H352.554C352.284 228.569 352.065 228.787 352.065 229.057V230.593C352.065 230.863 352.284 231.082 352.554 231.082Z" fill="#3F3D56"/>
<path d="M344.177 231.082H347.389C347.658 231.082 347.877 230.863 347.877 230.593V229.057C347.877 228.787 347.658 228.569 347.389 228.569H344.177C343.907 228.569 343.688 228.787 343.688 229.057V230.593C343.688 230.863 343.907 231.082 344.177 231.082Z" fill="#3F3D56"/>
<path d="M335.8 231.082H339.012C339.281 231.082 339.5 230.863 339.5 230.593V229.057C339.5 228.787 339.281 228.569 339.012 228.569H335.8C335.53 228.569 335.312 228.787 335.312 229.057V230.593C335.312 230.863 335.53 231.082 335.8 231.082Z" fill="#3F3D56"/>
<path d="M461.554 235.27H464.766C465.035 235.27 465.254 235.052 465.254 234.782V233.245C465.254 232.976 465.035 232.757 464.766 232.757H461.554C461.284 232.757 461.065 232.976 461.065 233.245V234.782C461.065 235.052 461.284 235.27 461.554 235.27Z" fill="#3F3D56"/>
<path d="M453.175 235.27H456.387C456.656 235.27 456.875 235.052 456.875 234.782V233.245C456.875 232.976 456.656 232.757 456.387 232.757H453.175C452.905 232.757 452.686 232.976 452.686 233.245V234.782C452.686 235.052 452.905 235.27 453.175 235.27Z" fill="#3F3D56"/>
<path d="M444.798 235.27H448.01C448.28 235.27 448.498 235.052 448.498 234.782V233.245C448.498 232.976 448.28 232.757 448.01 232.757H444.798C444.528 232.757 444.31 232.976 444.31 233.245V234.782C444.31 235.052 444.528 235.27 444.798 235.27Z" fill="#3F3D56"/>
<path d="M436.421 235.27H439.633C439.902 235.27 440.121 235.052 440.121 234.782V233.245C440.121 232.976 439.902 232.757 439.633 232.757H436.421C436.151 232.757 435.933 232.976 435.933 233.245V234.782C435.933 235.052 436.151 235.27 436.421 235.27Z" fill="#3F3D56"/>
<path d="M428.044 235.27H431.256C431.526 235.27 431.744 235.052 431.744 234.782V233.245C431.744 232.976 431.526 232.757 431.256 232.757H428.044C427.774 232.757 427.556 232.976 427.556 233.245V234.782C427.556 235.052 427.774 235.27 428.044 235.27Z" fill="#3F3D56"/>
<path d="M419.667 235.27H422.879C423.149 235.27 423.367 235.052 423.367 234.782V233.245C423.367 232.976 423.149 232.757 422.879 232.757H419.667C419.397 232.757 419.179 232.976 419.179 233.245V234.782C419.179 235.052 419.397 235.27 419.667 235.27Z" fill="#3F3D56"/>
<path d="M411.29 235.27H414.502C414.772 235.27 414.99 235.052 414.99 234.782V233.245C414.99 232.976 414.772 232.757 414.502 232.757H411.29C411.02 232.757 410.802 232.976 410.802 233.245V234.782C410.802 235.052 411.02 235.27 411.29 235.27Z" fill="#3F3D56"/>
<path d="M402.913 235.27H406.125C406.395 235.27 406.613 235.052 406.613 234.782V233.245C406.613 232.976 406.395 232.757 406.125 232.757H402.913C402.643 232.757 402.425 232.976 402.425 233.245V234.782C402.425 235.052 402.643 235.27 402.913 235.27Z" fill="#3F3D56"/>
<path d="M394.536 235.27H397.748C398.018 235.27 398.236 235.052 398.236 234.782V233.245C398.236 232.976 398.018 232.757 397.748 232.757H394.536C394.266 232.757 394.048 232.976 394.048 233.245V234.782C394.048 235.052 394.266 235.27 394.536 235.27Z" fill="#3F3D56"/>
<path d="M386.159 235.27H389.371C389.641 235.27 389.859 235.052 389.859 234.782V233.245C389.859 232.976 389.641 232.757 389.371 232.757H386.159C385.889 232.757 385.671 232.976 385.671 233.245V234.782C385.671 235.052 385.889 235.27 386.159 235.27Z" fill="#3F3D56"/>
<path d="M377.782 235.27H380.994C381.264 235.27 381.482 235.052 381.482 234.782V233.245C381.482 232.976 381.264 232.757 380.994 232.757H377.782C377.512 232.757 377.294 232.976 377.294 233.245V234.782C377.294 235.052 377.512 235.27 377.782 235.27Z" fill="#3F3D56"/>
<path d="M369.405 235.27H372.617C372.887 235.27 373.105 235.052 373.105 234.782V233.245C373.105 232.976 372.887 232.757 372.617 232.757H369.405C369.136 232.757 368.917 232.976 368.917 233.245V234.782C368.917 235.052 369.136 235.27 369.405 235.27Z" fill="#3F3D56"/>
<path d="M361.028 235.27H364.24C364.51 235.27 364.729 235.052 364.729 234.782V233.245C364.729 232.976 364.51 232.757 364.24 232.757H361.028C360.759 232.757 360.54 232.976 360.54 233.245V234.782C360.54 235.052 360.759 235.27 361.028 235.27Z" fill="#3F3D56"/>
<path d="M352.651 235.27H355.863C356.133 235.27 356.352 235.052 356.352 234.782V233.245C356.352 232.976 356.133 232.757 355.863 232.757H352.651C352.382 232.757 352.163 232.976 352.163 233.245V234.782C352.163 235.052 352.382 235.27 352.651 235.27Z" fill="#3F3D56"/>
<path d="M344.274 235.27H347.486C347.756 235.27 347.975 235.052 347.975 234.782V233.245C347.975 232.976 347.756 232.757 347.486 232.757H344.274C344.005 232.757 343.786 232.976 343.786 233.245V234.782C343.786 235.052 344.005 235.27 344.274 235.27Z" fill="#3F3D56"/>
<path d="M335.897 235.27H339.109C339.379 235.27 339.598 235.052 339.598 234.782V233.245C339.598 232.976 339.379 232.757 339.109 232.757H335.897C335.628 232.757 335.409 232.976 335.409 233.245V234.782C335.409 235.052 335.628 235.27 335.897 235.27Z" fill="#3F3D56"/>
<path d="M392.023 240.296H424.555C424.824 240.296 425.043 240.078 425.043 239.808V238.271C425.043 238.002 424.824 237.783 424.555 237.783H392.023C391.754 237.783 391.535 238.002 391.535 238.271V239.808C391.535 240.078 391.754 240.296 392.023 240.296Z" fill="#3F3D56"/>
<path d="M400.838 212.418C417.406 212.418 430.838 198.986 430.838 182.418C430.838 165.849 417.406 152.418 400.838 152.418C384.269 152.418 370.838 165.849 370.838 182.418C370.838 198.986 384.269 212.418 400.838 212.418Z" fill="white"/>
<path d="M394.102 194.317C393.711 194.325 393.323 194.235 392.976 194.054C392.605 193.866 392.292 193.58 392.071 193.228C391.85 192.875 391.729 192.469 391.722 192.053L391.227 172.902C391.217 172.487 391.318 172.076 391.52 171.713C391.722 171.35 392.018 171.049 392.377 170.839C392.736 170.63 393.144 170.521 393.559 170.523C393.975 170.526 394.382 170.64 394.738 170.853L413.152 179.96C413.487 180.161 413.766 180.443 413.963 180.78C414.159 181.117 414.268 181.499 414.278 181.889C414.288 182.279 414.199 182.666 414.02 183.013C413.841 183.36 413.577 183.656 413.253 183.874L395.333 193.918C394.969 194.166 394.542 194.304 394.102 194.317Z" fill="#7B2CBF"/>
<path d="M512.525 313.828L502.965 309.565L514.88 269.765L528.989 276.057L512.525 313.828Z" fill="#FFB8B8"/>
<path d="M515.369 307.305L505.026 302.682L503.403 301.955L501.012 308.305L483.257 312.712C482.379 312.929 481.593 313.422 481.015 314.117C480.437 314.812 480.096 315.674 480.043 316.577C479.989 317.48 480.226 318.376 480.718 319.135C481.21 319.894 481.932 320.475 482.778 320.794L500.42 327.45L505.826 322.317L504.646 329.044L511.29 331.552L517.883 308.431L515.369 307.305Z" fill="#2F2E41"/>
<path d="M530.072 171.879C531.269 172.705 532.633 173.258 534.067 173.5C535.501 173.742 536.97 173.666 538.372 173.278C539.774 172.89 541.073 172.2 542.179 171.256C543.285 170.311 544.171 169.136 544.774 167.812L579.971 171.105L571.33 154.893L539.231 154.252C536.94 153.387 534.412 153.393 532.125 154.267C529.838 155.142 527.951 156.825 526.822 158.998C525.693 161.171 525.4 163.682 525.999 166.056C526.598 168.43 528.047 170.502 530.072 171.879L530.072 171.879Z" fill="#FFB6B6"/>
<path d="M565.762 170.77L614.469 176.23L614.637 176.015C614.958 175.605 646.829 134.809 652.184 125.097C655.478 119.263 656.678 112.477 655.584 105.866L655.547 105.705L655.42 105.598C652.824 103.422 649.563 102.195 646.176 102.121C642.789 102.047 639.478 103.129 636.789 105.189C623.857 115.204 613.43 128.089 606.331 142.824L602.303 151.211L565.762 154.815V170.77Z" fill="#7B2CBF"/>
<path d="M674.973 196.149L676.38 199.324C676.819 202.246 678.524 199.339 678.374 201.817C685.621 207.786 665.758 247.687 650.831 246.063C643.911 248.237 635.754 249.124 627.228 249.184C626.4 249.191 625.568 249.19 624.734 249.181C624.202 249.175 622.567 247.201 622.034 247.189C620.429 247.153 619.919 249.056 618.303 248.97C617.026 248.903 614.675 249.991 614.469 248.726C614.027 246.002 613.202 246.62 612.227 248.547C611.552 249.884 609.247 248.274 607.766 248.115C599.219 247.196 590.946 245.796 583.796 244.358C581.133 243.829 578.63 243.291 576.327 242.767C571.964 241.785 568.315 240.868 565.672 240.17C562.695 239.392 561 238.888 561 238.888L539.766 256.163L523.313 292.062C522.046 292.177 508.355 288.572 508.355 288.572C506.895 287.241 505.868 285.503 505.405 283.583C504.943 281.662 505.067 279.647 505.761 277.798C506.599 275.29 512.532 256.748 518.74 240.559C520.58 235.752 522.484 230.876 524.444 226.025C526.049 222.041 527.684 218.072 529.34 214.158C532.217 207.372 546.117 203.713 562.486 201.793C563.319 201.698 564.156 201.604 564.999 201.514C573.34 200.636 582.19 200.183 590.467 199.973C594.61 199.869 598.609 199.829 602.328 199.824C603.53 199.824 604.698 199.827 605.834 199.834H605.839C608.905 199.849 611.727 199.894 614.21 199.943C614.693 199.953 615.162 199.968 615.621 199.978H615.626C615.935 199.983 616.239 199.993 616.538 199.998C621.968 200.138 625.298 200.307 625.298 200.307L625.025 190.848L626.854 188.132L627.103 186.187V186.182L627.133 185.938L627.338 185.933L630.928 185.863L661.102 185.275L673.955 184.73L674.973 196.149Z" fill="#2F2E41"/>
<path d="M629.09 261.091L625.757 271.013L585.004 262.939L589.924 248.295L629.09 261.091Z" fill="#FFB8B8"/>
<path d="M622.328 258.881L618.71 269.617L618.141 271.301L624.689 273.077L630.766 290.333C631.065 291.186 631.63 291.921 632.377 292.431C633.124 292.94 634.015 293.198 634.919 293.165C635.823 293.132 636.692 292.811 637.401 292.249C638.109 291.687 638.619 290.913 638.856 290.04L643.803 271.846L638.18 266.952L644.988 267.487L646.853 260.635L623.21 256.271L622.328 258.881Z" fill="#2F2E41"/>
<path d="M602.604 250.337C602.142 251.64 603.506 249.848 603.012 251.14C601.114 256.146 597.582 264.676 596.889 266.054C596.618 266 545.372 258.871 538.461 256.86L549.116 229.844L550.312 226.815L567.964 233.108L574.01 238.278L587.211 239.969L602.604 250.337Z" fill="#2F2E41"/>
<path d="M635.775 76.8621C649.165 76.8621 660.02 66.0076 660.02 52.6179C660.02 39.2283 649.165 28.3738 635.775 28.3738C622.386 28.3738 611.531 39.2283 611.531 52.6179C611.531 66.0076 622.386 76.8621 635.775 76.8621Z" fill="#FFB6B6"/>
<path d="M543.849 181.621C545.63 182.74 542.144 185.43 540.041 185.43C539.031 185.43 538.062 185.028 537.348 184.314C536.634 183.6 536.232 182.631 536.232 181.621C536.232 179.518 538.592 174.52 539.565 176.385C539.83 176.894 541.525 180.162 543.849 181.621Z" fill="#7B2CBF"/>
<path d="M550.039 181.621C551.82 182.74 548.333 185.43 546.23 185.43C545.22 185.43 544.251 185.028 543.537 184.314C542.823 183.6 542.422 182.631 542.422 181.621C542.422 179.518 544.782 174.52 545.754 176.385C546.02 176.894 547.714 180.162 550.039 181.621Z" fill="#7B2CBF"/>
<path d="M547.08 180.767C545.065 180.163 547.708 176.642 549.736 176.081C550.709 175.812 551.75 175.941 552.628 176.439C553.507 176.937 554.152 177.764 554.421 178.738C554.981 180.765 554.038 186.211 552.604 184.672C552.212 184.252 549.709 181.554 547.08 180.767Z" fill="#7B2CBF"/>
<path d="M570.984 181.621C572.765 182.74 569.279 185.43 567.176 185.43C566.166 185.43 565.197 185.028 564.483 184.314C563.768 183.6 563.367 182.631 563.367 181.621C563.367 179.518 565.727 174.52 566.699 176.385C566.965 176.894 568.659 180.162 570.984 181.621Z" fill="#7B2CBF"/>
<path d="M577.173 181.621C578.955 182.74 575.468 185.43 573.365 185.43C572.355 185.43 571.386 185.028 570.672 184.314C569.958 183.6 569.557 182.631 569.557 181.621C569.557 179.518 571.916 174.52 572.889 176.385C573.154 176.894 574.849 180.162 577.173 181.621Z" fill="#7B2CBF"/>
<path d="M574.214 180.767C572.199 180.163 574.843 176.642 576.87 176.081C577.844 175.812 578.885 175.941 579.763 176.439C580.642 176.937 581.287 177.764 581.556 178.738C582.116 180.765 581.173 186.211 579.739 184.672C579.347 184.252 576.844 181.554 574.214 180.767Z" fill="#7B2CBF"/>
<path d="M530.419 180.767C528.404 180.163 531.048 176.642 533.076 176.081C534.049 175.812 535.09 175.941 535.968 176.439C536.847 176.937 537.492 177.764 537.761 178.738C538.321 180.765 537.378 186.211 535.944 184.672C535.552 184.252 533.049 181.554 530.419 180.767Z" fill="#7B2CBF"/>
<path d="M557.502 184.837C556.65 186.76 553.489 183.694 553.188 181.613C553.116 181.118 553.143 180.614 553.266 180.129C553.389 179.644 553.607 179.189 553.906 178.788C554.205 178.387 554.581 178.05 555.011 177.794C555.44 177.538 555.916 177.37 556.411 177.298C558.493 176.997 563.777 178.617 562.071 179.847C561.605 180.182 558.613 182.327 557.502 184.837Z" fill="#7B2CBF"/>
<path d="M564.802 178.459C565.31 176.418 568.953 178.892 569.608 180.89C569.764 181.365 569.825 181.867 569.787 182.365C569.749 182.864 569.614 183.35 569.388 183.797C569.162 184.243 568.851 184.64 568.471 184.966C568.092 185.292 567.652 185.54 567.177 185.696C565.179 186.352 559.694 185.668 561.163 184.162C561.564 183.751 564.141 181.123 564.802 178.459Z" fill="#7B2CBF"/>
<path d="M561.947 175.603C562.454 173.562 566.097 176.036 566.753 178.034C566.909 178.509 566.97 179.01 566.932 179.509C566.894 180.008 566.758 180.494 566.533 180.94C566.307 181.387 565.995 181.784 565.616 182.11C565.237 182.436 564.797 182.684 564.322 182.84C562.323 183.496 556.839 182.812 558.307 181.306C558.708 180.895 561.285 178.266 561.947 175.603Z" fill="#7B2CBF"/>
<path d="M544.231 166.61C543.379 168.533 540.217 165.467 539.916 163.386C539.845 162.891 539.871 162.387 539.994 161.902C540.118 161.417 540.335 160.962 540.635 160.561C540.934 160.16 541.309 159.823 541.739 159.567C542.169 159.311 542.645 159.143 543.14 159.071C545.222 158.77 550.506 160.39 548.8 161.62C548.334 161.955 545.342 164.1 544.231 166.61Z" fill="#7B2CBF"/>
<path d="M525.726 194.695L530.2 209.282C530.669 211.808 532.007 214.091 533.983 215.734C535.959 217.377 538.447 218.276 541.017 218.276H572.67C575.279 218.284 577.806 217.361 579.796 215.672C581.785 213.984 583.107 211.641 583.524 209.065L583.535 209.017L587.498 194.496C587.737 193.026 587.654 191.523 587.254 190.089C586.854 188.655 586.148 187.325 585.183 186.191C584.219 185.057 583.019 184.146 581.668 183.521C580.317 182.897 578.846 182.573 577.357 182.573H535.833C534.327 182.573 532.839 182.904 531.476 183.543C530.112 184.181 528.906 185.112 527.941 186.268C526.977 187.425 526.279 188.779 525.896 190.235C525.513 191.691 525.455 193.214 525.726 194.695Z" fill="#E6E6E6"/>
<path d="M629.347 84.0534C629.347 84.0534 646.834 81.7917 652.161 83.9227C654.057 84.6809 655.952 91.6435 659.507 93.7174C659.572 93.7549 659.636 93.792 659.7 93.8287C663.016 95.713 665.75 98.4734 667.602 101.808C669.454 105.142 670.354 108.921 670.202 112.732C669.34 129.88 670.657 147.069 674.121 163.885C674.373 165.131 674.639 166.393 674.918 167.671C675.246 169.172 675.593 170.697 675.96 172.246C676.645 175.135 677.401 178.114 678.228 181.185C678.659 182.784 676.119 186.902 676.591 188.557C676.908 189.667 677.235 190.791 677.571 191.928C678.581 195.342 682.669 196.384 683.86 200.054C683.874 201.227 683.586 202.384 683.025 203.415C682.463 204.445 681.647 205.315 680.653 205.939C679.66 206.564 678.523 206.923 677.35 206.982C676.178 207.041 675.011 206.798 673.96 206.277L612.166 201.459L618.046 192.344L614.057 186.859L617.049 184.865L618.545 179.381L613.815 160.907L607.041 145.377C604.704 140.021 604.39 133.999 606.157 128.429C607.925 122.859 611.653 118.119 616.65 115.09L624.41 94.5336L629.347 84.0534Z" fill="#7B2CBF"/>
<path d="M584.338 210.691C584.788 209.308 585.535 208.041 586.527 206.978C587.52 205.915 588.733 205.082 590.082 204.539C591.432 203.995 592.883 203.755 594.335 203.833C595.788 203.911 597.205 204.307 598.488 204.993L624.45 181L627.431 199.127L602.32 219.132C601.026 221.21 599.014 222.742 596.666 223.436C594.318 224.13 591.797 223.939 589.58 222.899C587.364 221.858 585.606 220.041 584.64 217.791C583.674 215.541 583.566 213.015 584.338 210.691H584.338Z" fill="#FFB6B6"/>
<path d="M625.486 201.891L663.418 173.896L663.545 173.898C663.502 173.378 659.158 121.791 656.487 111.028C654.939 104.509 651.207 98.7154 645.912 94.6094L645.776 94.5156L645.61 94.5232C642.226 94.6914 639.001 96.0075 636.466 98.2548C633.931 100.502 632.237 103.546 631.664 106.885C628.984 123.021 630.09 139.558 634.896 155.193L637.64 164.083L620.541 179.556L625.486 201.891Z" fill="#7B2CBF"/>
<path d="M713.583 88.2929C710.785 92.2576 706.701 95.1325 702.025 96.4299C700.154 96.9868 698.222 97.3149 696.272 97.4071C696.031 95.2017 695.454 93.0462 694.562 91.0152C694.652 93.1769 694.352 95.3373 693.674 97.3921C690.745 97.2261 687.882 96.459 685.263 95.1385C682.69 93.8442 680.454 91.9681 678.733 89.659C677.011 87.35 675.852 84.6715 675.346 81.8362C674.319 75.2049 677.325 68.6933 678.412 62.072C679.504 55.4508 677.455 47.0645 670.973 45.3244C666.037 43.9982 666.591 44.5716 662.487 47.6179C666.756 53.9292 650.99 77.0572 644.538 75.0404C640.89 73.9001 638.555 70.5531 637.802 70.5531C632.731 79.2884 642.279 94.0067 632.657 97.0631L633.449 96.2703C639.258 89.1255 627.117 74.0033 632.926 66.8585C634.546 64.8591 636.271 62.4908 635.793 59.963C635.339 57.5598 631.525 56.2884 630.408 58.2628C632.417 53.6608 629.451 47.5182 624.539 46.3365C620.177 45.2845 620.257 46.5808 615.879 47.1442C615.593 45.2524 615.058 43.4066 614.288 41.6548C614.369 43.5423 614.148 45.4307 613.635 47.249C612.089 47.2187 610.596 46.6789 609.387 45.7133C605.817 42.8364 606.54 36.7935 609.726 33.4979C612.917 30.2022 617.659 29.0155 622.181 28.2477C623.496 19.0932 648.754 18.1382 652.101 27.2854C653.527 20.4547 662.078 16.9097 668.724 19.0287C675.371 21.1477 679.983 27.3552 682.411 33.8968C684.839 40.4333 685.517 47.4684 687.013 54.2791C688.509 61.0898 691.036 68.0252 696.242 72.6671C701.447 77.304 709.928 78.8397 715.412 74.5318C716.21 76.8081 716.46 79.2402 716.142 81.631C715.824 84.0218 714.947 86.3041 713.583 88.2929Z" fill="#2F2E41"/>
<path d="M200.085 68.5618C199.23 70.4922 196.057 67.4152 195.754 65.3257C195.609 64.3223 195.868 63.3023 196.475 62.4901C197.082 61.6779 197.987 61.1401 198.99 60.9949C201.08 60.6926 206.384 62.3184 204.672 63.5528C204.204 63.8898 201.201 66.0427 200.085 68.5618Z" fill="#7B2CBF"/>
<path d="M201.71 78.3007L204.74 107.711L218.952 110.828C218.952 110.828 211.197 76.6097 210.769 75.5878C211.519 74.3637 211.88 72.9409 211.803 71.5073C211.727 70.0738 211.217 68.6972 210.342 67.5597C209.466 66.4221 208.266 65.5772 206.899 65.1367C205.533 64.6962 204.065 64.6808 202.69 65.0927C201.315 65.5045 200.097 66.3242 199.198 67.4432C198.299 68.5622 197.76 69.9278 197.654 71.3594C197.548 72.791 197.879 74.2211 198.603 75.4606C199.327 76.7 200.411 77.6904 201.71 78.3007Z" fill="#FFB6B6"/>
<path d="M166.043 82.9158C159.825 84.7516 182.619 130.51 214.434 137.437C216.596 136.778 218.597 135.676 220.309 134.2C222.022 132.724 223.407 130.907 224.377 128.865C225.347 126.823 225.88 124.601 225.942 122.341C226.004 120.082 225.594 117.834 224.738 115.741L215.366 93.8214L201.939 100.868L202.727 111.341L192.191 99.5919L170.489 89.7097L166.043 82.9158Z" fill="white"/>
</g>
<defs>
<clipPath id="clip0_284_280">
<rect width="844.67" height="331.552" fill="white"/>
</clipPath>
</defs>
</svg>
