<svg width="141" height="141" viewBox="0 0 141 141" fill="none" xmlns="http://www.w3.org/2000/svg">
<path d="M23.1329 69.426C23.2706 63.4087 24.5099 57.5704 26.8369 52.0764C29.219 46.4309 32.6339 41.3774 36.9851 37.0125C41.3362 32.6476 46.4034 29.2327 52.0489 26.8506C57.8872 24.3858 64.0835 23.1328 70.4863 23.1328C76.8892 23.1328 83.0855 24.3858 88.91 26.8506C94.5393 29.2278 99.6513 32.6795 103.96 37.0125C105.323 38.3757 106.604 39.8215 107.788 41.3361L99.4987 47.8078C99.3347 47.9347 99.2098 48.1053 99.1385 48.3C99.0671 48.4947 99.0521 48.7055 99.0953 48.9083C99.1385 49.1112 99.238 49.2977 99.3824 49.4464C99.5269 49.5952 99.7104 49.7002 99.9118 49.7493L124.105 55.6702C124.793 55.8354 125.468 55.3122 125.468 54.61L125.578 29.7009C125.578 28.7783 124.518 28.2551 123.802 28.8334L116.036 34.9058C105.447 21.3565 88.9788 12.668 70.4726 12.668C38.9266 12.668 13.2602 37.9488 12.6681 69.3709C12.6644 69.5179 12.6902 69.6641 12.7439 69.8009C12.7976 69.9378 12.8782 70.0625 12.9808 70.1677C13.0835 70.2729 13.2061 70.3565 13.3416 70.4136C13.4771 70.4707 13.6226 70.5 13.7696 70.5H22.0314C22.6372 70.5 23.1191 70.0181 23.1329 69.426ZM127.231 70.5H118.969C118.363 70.5 117.881 70.9819 117.867 71.574C117.73 77.5913 116.49 83.4296 114.163 88.9236C111.781 94.5691 108.366 99.6363 104.015 103.988C99.6233 108.397 94.4019 111.894 88.6521 114.277C82.9022 116.659 76.7377 117.879 70.5139 117.867C64.2922 117.879 58.1297 116.658 52.3821 114.276C46.6346 111.894 41.4156 108.397 37.0264 103.988C35.6632 102.624 34.3826 101.179 33.1984 99.6639L41.4877 93.1922C41.6517 93.0653 41.7766 92.8947 41.8479 92.7C41.9193 92.5053 41.9343 92.2945 41.8911 92.0917C41.848 91.8888 41.7485 91.7023 41.604 91.5536C41.4596 91.4048 41.2761 91.2998 41.0746 91.2507L16.8815 85.3298C16.1931 85.1646 15.5184 85.6878 15.5184 86.39L15.422 111.313C15.422 112.235 16.4822 112.759 17.1982 112.18L24.9643 106.108C35.553 119.643 52.0214 128.332 70.5276 128.332C102.087 128.332 127.74 103.037 128.332 71.6291C128.336 71.4821 128.31 71.3359 128.256 71.1991C128.203 71.0622 128.122 70.9375 128.019 70.8323C127.917 70.7271 127.794 70.6435 127.659 70.5864C127.523 70.5293 127.378 70.5 127.231 70.5Z" fill="white"/>
</svg>
