<svg width="141" height="141" viewBox="0 0 141 141" fill="none" xmlns="http://www.w3.org/2000/svg">
<path d="M23.1328 69.426C23.2705 63.4087 24.5097 57.5704 26.8368 52.0764C29.2189 46.4309 32.6338 41.3774 36.9849 37.0125C41.3361 32.6476 46.4033 29.2327 52.0488 26.8506C57.8871 24.3858 64.0834 23.1328 70.4862 23.1328C76.889 23.1328 83.0853 24.3858 88.9098 26.8506C94.5392 29.2278 99.6512 32.6795 103.96 37.0125C105.323 38.3757 106.604 39.8215 107.788 41.3361L99.4986 47.8078C99.3346 47.9347 99.2097 48.1053 99.1384 48.3C99.067 48.4947 99.052 48.7055 99.0952 48.9083C99.1383 49.1112 99.2378 49.2977 99.3823 49.4464C99.5267 49.5952 99.7102 49.7002 99.9117 49.7493L124.105 55.6702C124.793 55.8354 125.468 55.3122 125.468 54.61L125.578 29.7009C125.578 28.7783 124.518 28.2551 123.802 28.8334L116.036 34.9058C105.447 21.3565 88.9787 12.668 70.4724 12.668C38.9264 12.668 13.26 37.9488 12.6679 69.3709C12.6643 69.5179 12.69 69.6641 12.7438 69.8009C12.7975 69.9378 12.878 70.0625 12.9807 70.1677C13.0833 70.2729 13.206 70.3565 13.3415 70.4136C13.477 70.4707 13.6225 70.5 13.7695 70.5H22.0312C22.6371 70.5 23.119 70.0181 23.1328 69.426ZM127.23 70.5H118.969C118.363 70.5 117.881 70.9819 117.867 71.574C117.729 77.5913 116.49 83.4296 114.163 88.9236C111.781 94.5691 108.366 99.6363 104.015 103.988C99.6232 108.397 94.4018 111.894 88.652 114.277C82.9021 116.659 76.7375 117.879 70.5137 117.867C64.292 117.879 58.1296 116.658 52.382 114.276C46.6344 111.894 41.4155 108.397 37.0262 103.988C35.6631 102.624 34.3825 101.179 33.1983 99.6639L41.4876 93.1922C41.6516 93.0653 41.7765 92.8947 41.8478 92.7C41.9192 92.5053 41.9342 92.2945 41.891 92.0917C41.8479 91.8888 41.7483 91.7023 41.6039 91.5536C41.4594 91.4048 41.2759 91.2998 41.0745 91.2507L16.8814 85.3298C16.1929 85.1646 15.5182 85.6878 15.5182 86.39L15.4219 111.313C15.4219 112.235 16.4821 112.759 17.1981 112.18L24.9641 106.108C35.5529 119.643 52.0213 128.332 70.5275 128.332C102.087 128.332 127.74 103.037 128.332 71.6291C128.336 71.4821 128.31 71.3359 128.256 71.1991C128.202 71.0622 128.122 70.9375 128.019 70.8323C127.917 70.7271 127.794 70.6435 127.658 70.5864C127.523 70.5293 127.377 70.5 127.23 70.5Z" fill="black"/>
</svg>
