<svg width="116" height="123" viewBox="0 0 116 123" fill="none" xmlns="http://www.w3.org/2000/svg">
<g clip-path="url(#clip0_194_438)">
<path d="M17.2 0H76.67C81.4 0 85.7 1.93 88.82 5.05C91.94 8.17 93.87 12.47 93.87 17.2V55.56C93.87 60.29 91.94 64.59 88.82 67.71C85.7 70.83 81.4 72.76 76.67 72.76H46.93L20.81 95.21C19.6 96.25 17.77 96.11 16.73 94.89C16.22 94.29 15.99 93.55 16.04 92.82L17.43 72.75H17.2C12.47 72.75 8.17 70.82 5.05 67.7C1.93 64.59 0 60.29 0 55.56V17.2C0 12.47 1.93 8.17 5.05 5.05C8.16 1.93 12.46 0 17.2 0ZM102.31 27.98C105.68 28.63 108.7 30.29 111.04 32.63C114.09 35.68 115.99 39.89 115.99 44.53V82.89C115.99 87.53 114.1 91.74 111.04 94.79C107.99 97.84 103.78 99.74 99.14 99.74H98.53L99.95 120.18C99.99 120.82 99.8 121.48 99.35 122C98.44 123.07 96.83 123.19 95.77 122.28L69.55 99.08H35.01L52.02 81.78H88.06C95.92 81.78 102.36 75.35 102.36 67.48V29.11C102.35 28.73 102.34 28.35 102.31 27.98ZM25.68 43.68C24.08 43.68 22.78 42.38 22.78 40.78C22.78 39.18 24.08 37.88 25.68 37.88H56.03C57.63 37.88 58.93 39.18 58.93 40.78C58.93 42.38 57.63 43.68 56.03 43.68H25.68ZM25.68 29.32C24.08 29.32 22.78 28.02 22.78 26.42C22.78 24.82 24.08 23.52 25.68 23.52H68.7C70.3 23.52 71.6 24.82 71.6 26.42C71.6 28.02 70.3 29.32 68.7 29.32H25.68ZM76.66 5.8H17.2C14.07 5.8 11.22 7.08 9.15 9.15C7.08 11.22 5.8 14.06 5.8 17.2V55.56C5.8 58.69 7.08 61.54 9.15 63.61C11.22 65.68 14.07 66.96 17.2 66.96H20.54V66.97L20.73 66.98C22.32 67.09 23.53 68.47 23.42 70.06L22.29 86.32L43.83 67.8C44.35 67.28 45.07 66.96 45.87 66.96H76.66C79.79 66.96 82.64 65.68 84.71 63.61C86.78 61.54 88.06 58.69 88.06 55.56V17.2C88.06 14.07 86.78 11.22 84.71 9.15C82.65 7.08 79.8 5.8 76.66 5.8Z" fill="black"/>
</g>
<defs>
<clipPath id="clip0_194_438">
<rect width="115.98" height="122.88" fill="white"/>
</clipPath>
</defs>
</svg>
