<svg width="50" height="50" viewBox="0 0 50 50" fill="none" xmlns="http://www.w3.org/2000/svg">
<path d="M24.999 4.91846C13.9151 4.91846 4.92969 13.9094 4.92969 24.9997C4.92969 36.0896 13.9151 45.0817 24.999 45.0817C36.0833 45.0817 45.0691 36.09 45.0691 24.9997C45.0691 13.9094 36.0833 4.91846 24.999 4.91846ZM34.7962 20.0108C34.7962 20.0108 35.2733 22.3771 33.5611 26.5341C31.8482 30.691 27.6097 34.6233 21.7714 34.9886C15.9327 35.3535 12.788 32.7695 12.788 32.7695C17.1674 33.1066 19.1042 31.3091 20.1428 30.7192C16.0726 30.1855 15.483 27.124 15.483 27.124C15.8758 27.2928 17.0828 27.2365 17.7286 27.0681C13.743 26.0851 13.6587 22.0688 13.6587 22.0688C13.6587 22.0688 15.146 22.8271 15.9882 22.6865C12.1422 19.7653 14.3885 15.9455 14.3885 15.9455C19.4692 21.507 24.8585 21.198 24.8585 21.198L24.8828 21.2344C24.7849 20.8428 24.7322 20.433 24.7322 20.0112C24.7322 17.2306 26.985 14.9768 29.764 14.9768C31.2319 14.9768 32.553 15.6063 33.473 16.6098L33.5049 16.5917C35.3011 16.4792 36.6208 15.5244 36.6208 15.5244C36.0739 17.123 34.9121 17.8678 34.4269 18.1185C34.4332 18.1334 34.4391 18.1483 34.4446 18.1629C35.0724 18.0108 36.7565 17.5987 37.2107 17.4626C36.2276 19.2598 34.7962 20.0108 34.7962 20.0108Z" fill="black"/>
</svg>
