<svg width="131" height="131" viewBox="0 0 131 131" fill="none" xmlns="http://www.w3.org/2000/svg">
<path d="M105.919 90.9631V27.4716C105.919 26.7796 105.644 26.1157 105.155 25.6264L80.2932 0.764341C79.8036 0.275048 79.14 0 78.448 0H18.4714C17.0301 0 15.8618 1.1683 15.8618 2.60956V118.974C15.8618 120.415 17.0301 121.584 18.4714 121.584H74.9532C79.0915 127.506 85.7542 131 93.0493 131C105.229 131 115.138 121.091 115.138 108.911C115.138 101.728 111.716 95.1146 105.919 90.9631ZM21.0809 5.21912H77.3668L97.2407 25.093H83.8926C82.4516 25.093 81.283 26.2613 81.283 27.7026C81.283 29.1438 82.4516 30.3121 83.8926 30.3121H100.7V88.1894C98.2645 87.2888 95.6776 86.8217 93.0493 86.8217C80.8691 86.8217 70.9601 96.731 70.9601 108.911C70.9601 111.466 71.4016 113.986 72.2531 116.364H21.0809V5.21912ZM93.0493 125.781C87.1083 125.781 81.7159 122.746 78.6244 117.663C77.0247 115.034 76.1792 112.007 76.1792 108.911C76.1792 99.6091 83.7472 92.0411 93.0493 92.0411C96.1246 92.0411 99.1243 92.8787 101.748 94.4622C101.872 94.5549 102.003 94.6371 102.143 94.707C107.014 97.8319 109.919 103.13 109.919 108.911C109.919 118.213 102.352 125.781 93.0493 125.781Z" fill="white"/>
<path d="M102.907 106.302H95.6586V99.0534C95.6586 97.6121 94.49 96.4438 93.049 96.4438C91.608 96.4438 90.4394 97.6121 90.4394 99.0534V106.302H83.1911C81.7501 106.302 80.5815 107.47 80.5815 108.911C80.5815 110.353 81.7501 111.521 83.1911 111.521H90.4394V118.769C90.4394 120.21 91.608 121.379 93.049 121.379C94.49 121.379 95.6586 120.21 95.6586 118.769V111.521H102.907C104.348 111.521 105.516 110.353 105.516 108.911C105.516 107.47 104.348 106.302 102.907 106.302Z" fill="white"/>
<path d="M76.3454 27.7028C76.3454 26.2616 75.1769 25.0933 73.7359 25.0933H70.7487C69.3077 25.0933 68.1392 26.2616 68.1392 27.7028C68.1392 29.1441 69.3077 30.3124 70.7487 30.3124H73.7359C75.1771 30.3124 76.3454 29.1441 76.3454 27.7028Z" fill="white"/>
</svg>
