<svg width="131" height="131" viewBox="0 0 131 131" fill="none" xmlns="http://www.w3.org/2000/svg">
<path d="M105.919 90.9631V27.4716C105.919 26.7796 105.644 26.1157 105.155 25.6264L80.2931 0.764341C79.8035 0.275048 79.1399 0 78.4478 0H18.4713C17.03 0 15.8617 1.1683 15.8617 2.60956V118.974C15.8617 120.415 17.03 121.584 18.4713 121.584H74.9531C79.0914 127.506 85.7541 131 93.0491 131C105.229 131 115.138 121.091 115.138 108.911C115.138 101.728 111.716 95.1146 105.919 90.9631ZM21.0808 5.21912H77.3667L97.2406 25.093H83.8924C82.4514 25.093 81.2829 26.2613 81.2829 27.7026C81.2829 29.1438 82.4514 30.3121 83.8924 30.3121H100.7V88.1894C98.2643 87.2888 95.6775 86.8217 93.0491 86.8217C80.869 86.8217 70.96 96.731 70.96 108.911C70.96 111.466 71.4015 113.986 72.253 116.364H21.0808V5.21912ZM93.0491 125.781C87.1082 125.781 81.7158 122.746 78.6243 117.663C77.0246 115.034 76.1791 112.007 76.1791 108.911C76.1791 99.6091 83.7471 92.0411 93.0491 92.0411C96.1245 92.0411 99.1242 92.8787 101.748 94.4622C101.872 94.5549 102.003 94.6371 102.143 94.707C107.014 97.8319 109.919 103.13 109.919 108.911C109.919 118.213 102.351 125.781 93.0491 125.781Z" fill="black"/>
<path d="M102.907 106.302H95.6584V99.0534C95.6584 97.6121 94.4899 96.4438 93.0489 96.4438C91.6079 96.4438 90.4393 97.6121 90.4393 99.0534V106.302H83.191C81.75 106.302 80.5814 107.47 80.5814 108.911C80.5814 110.353 81.75 111.521 83.191 111.521H90.4393V118.769C90.4393 120.21 91.6079 121.379 93.0489 121.379C94.4899 121.379 95.6584 120.21 95.6584 118.769V111.521H102.907C104.348 111.521 105.516 110.353 105.516 108.911C105.516 107.47 104.348 106.302 102.907 106.302Z" fill="black"/>
<path d="M76.3453 27.7028C76.3453 26.2616 75.1768 25.0933 73.7358 25.0933H70.7486C69.3076 25.0933 68.139 26.2616 68.139 27.7028C68.139 29.1441 69.3076 30.3124 70.7486 30.3124H73.7358C75.177 30.3124 76.3453 29.1441 76.3453 27.7028Z" fill="black"/>
</svg>
