<svg width="148" height="134" viewBox="0 0 148 134" fill="none" xmlns="http://www.w3.org/2000/svg">
<path d="M90.3414 133.105V123.359C118.876 117.082 137.904 95.0964 137.904 66.7136C137.904 38.1807 118.274 15.4445 90.3564 10.0683V0.322021C122.576 5.02244 147.41 32.8045 147.41 66.7136C147.41 100.623 122.576 128.405 90.3414 133.105ZM66.5752 123.689L23.7812 95.2015H9.50645C4.25684 95.2015 0 90.9516 0 85.7105V47.7167C0 42.4757 4.25684 38.2258 9.50645 38.2258H23.7661L66.5602 9.73789C71.8098 9.73789 76.0667 13.9878 76.0667 19.2288V114.183C76.0817 119.424 71.8248 123.689 66.5752 123.689ZM118.876 66.7136C118.876 83.4429 106.451 97.1387 90.3414 99.4664V89.9755C101.187 87.7829 109.369 78.2019 109.369 66.7136C109.369 55.2254 101.202 45.6593 90.3414 43.4518V33.9608C106.466 36.2885 118.876 49.9843 118.876 66.7136Z" fill="black"/>
</svg>
