<svg width="148" height="139" viewBox="0 0 148 139" fill="none" xmlns="http://www.w3.org/2000/svg">
<path d="M90.3414 138.492V128.327C118.876 121.78 137.904 98.8493 137.904 69.2462C137.904 39.4865 118.274 15.7727 90.3564 10.1653V0C122.576 4.90253 147.41 33.8791 147.41 69.2462C147.41 104.613 122.576 133.59 90.3414 138.492ZM66.5752 128.672L23.7812 98.959H9.50645C4.25684 98.959 0 94.5263 0 89.0599V49.4325C0 43.9661 4.25684 39.5335 9.50645 39.5335H23.7661L66.5602 9.82071C71.8098 9.82071 76.0667 14.2534 76.0667 19.7197V118.757C76.0817 124.223 71.8248 128.672 66.5752 128.672ZM118.876 69.2462C118.876 86.6948 106.451 100.979 90.3414 103.407V93.5082C101.187 91.2214 109.369 81.2284 109.369 69.2462C109.369 57.264 101.202 47.2867 90.3414 44.9842V35.0852C106.466 37.5129 118.876 51.7976 118.876 69.2462Z" fill="white"/>
</svg>
