<svg width="454" height="454" viewBox="0 0 454 454" fill="none" xmlns="http://www.w3.org/2000/svg">
<g clip-path="url(#clip0_93_15)">
<path d="M446.076 341.883C446.247 341.849 446.414 341.803 446.582 341.76C446.725 341.723 446.869 341.693 447.01 341.649C447.174 341.599 447.334 341.538 447.494 341.48C447.636 341.429 447.779 341.383 447.919 341.324C448.07 341.261 448.216 341.187 448.363 341.118C448.506 341.049 448.652 340.986 448.792 340.91C448.933 340.835 449.065 340.75 449.202 340.669C449.342 340.585 449.484 340.506 449.621 340.414C449.766 340.317 449.902 340.209 450.042 340.104C450.16 340.016 450.281 339.934 450.397 339.839C450.609 339.664 450.811 339.478 451.008 339.286C451.044 339.252 451.082 339.223 451.117 339.188C451.154 339.151 451.186 339.11 451.221 339.072C451.41 338.878 451.594 338.678 451.767 338.468C451.868 338.345 451.956 338.216 452.051 338.089C452.148 337.958 452.25 337.83 452.341 337.694C452.438 337.548 452.523 337.397 452.613 337.248C452.687 337.122 452.767 336.998 452.837 336.868C452.918 336.717 452.987 336.561 453.059 336.407C453.123 336.271 453.191 336.136 453.251 335.995C453.314 335.844 453.363 335.691 453.419 335.537C453.472 335.387 453.53 335.239 453.576 335.087C453.623 334.932 453.658 334.774 453.697 334.617C453.735 334.462 453.78 334.31 453.81 334.153C453.847 333.968 453.869 333.782 453.895 333.595C453.914 333.464 453.938 333.334 453.952 333.202C453.984 332.875 454.001 332.548 454.001 332.22V121.772C454.001 116.334 449.594 111.927 444.156 111.927H134.014C133.927 111.927 133.843 111.937 133.757 111.94C133.569 111.945 133.383 111.953 133.196 111.969C133.048 111.98 132.901 111.998 132.754 112.017C132.586 112.038 132.419 112.063 132.252 112.093C132.096 112.121 131.941 112.154 131.788 112.189C131.631 112.226 131.475 112.265 131.32 112.31C131.167 112.353 131.016 112.401 130.866 112.45C130.713 112.503 130.559 112.558 130.408 112.618C130.265 112.675 130.124 112.733 129.985 112.796C129.83 112.865 129.677 112.94 129.524 113.018C129.395 113.084 129.267 113.153 129.141 113.225C128.989 113.312 128.839 113.403 128.691 113.498C128.569 113.577 128.449 113.658 128.331 113.741C128.192 113.839 128.054 113.942 127.919 114.049C127.796 114.148 127.675 114.249 127.555 114.353C127.437 114.456 127.32 114.56 127.206 114.67C127.076 114.795 126.951 114.925 126.828 115.056C126.766 115.122 126.701 115.18 126.642 115.247C126.606 115.286 126.579 115.329 126.544 115.369C126.421 115.512 126.306 115.661 126.19 115.812C126.106 115.923 126.019 116.033 125.941 116.146C125.838 116.293 125.744 116.444 125.649 116.596C125.572 116.721 125.492 116.844 125.421 116.972C125.338 117.119 125.266 117.27 125.191 117.421C125.123 117.558 125.052 117.696 124.99 117.837C124.926 117.985 124.869 118.139 124.813 118.29C124.756 118.438 124.699 118.585 124.65 118.735C124.602 118.886 124.562 119.039 124.52 119.193C124.478 119.35 124.434 119.507 124.398 119.665C124.365 119.814 124.343 119.965 124.317 120.114C124.288 120.285 124.259 120.456 124.238 120.626C124.221 120.768 124.213 120.913 124.202 121.057C124.189 121.241 124.178 121.425 124.175 121.61C124.174 121.663 124.167 121.716 124.167 121.77V182.488C124.167 187.927 128.574 192.334 134.013 192.334C139.452 192.334 143.859 187.927 143.859 182.488V143.637L231.395 221.138C230.938 221.46 230.499 221.816 230.089 222.224L143.857 308.456V243.752C143.857 238.313 139.45 233.906 134.012 233.906C128.573 233.906 124.166 238.313 124.166 243.752V255.782H73.296C67.8572 255.782 63.4502 260.189 63.4502 265.628C63.4502 271.067 67.8572 275.474 73.296 275.474H124.166V332.226C124.166 337.665 128.573 342.072 134.012 342.072H444.153C444.477 342.072 444.802 342.055 445.125 342.023C445.275 342.009 445.421 341.98 445.57 341.959C445.74 341.935 445.908 341.916 446.076 341.883ZM434.309 308.457L348.075 222.225C348.02 222.17 347.961 222.124 347.905 222.072L412.733 167.071C416.879 163.553 417.388 157.341 413.87 153.194C410.355 149.049 404.143 148.537 399.993 152.057L289.22 246.038L159.986 131.619H434.309V308.457ZM244.015 236.151C244.717 235.449 245.287 234.667 245.732 233.834L282.557 266.437C284.418 268.084 286.75 268.911 289.084 268.911C291.349 268.911 293.614 268.133 295.454 266.573L332.983 234.733C333.324 235.232 333.709 235.709 334.151 236.151L420.383 322.383H157.783L244.015 236.151Z" fill="#7B2CBF"/>
<path d="M9.84576 224.058H176.13C181.569 224.058 185.976 219.651 185.976 214.212C185.976 208.773 181.569 204.366 176.13 204.366H9.84576C4.40696 204.366 0 208.773 0 214.212C0 219.651 4.40696 224.058 9.84576 224.058Z" fill="#7B2CBF"/>
<path d="M27.0757 169.8H101.739C107.178 169.8 111.585 165.393 111.585 159.954C111.585 154.515 107.178 150.109 101.739 150.109H27.0757C21.6369 150.109 17.23 154.515 17.23 159.954C17.23 165.393 21.6369 169.8 27.0757 169.8Z" fill="#7B2CBF"/>
<path d="M82.048 297.355H9.84576C4.40696 297.355 0 301.762 0 307.201C0 312.64 4.40696 317.047 9.84576 317.047H82.048C87.4868 317.047 91.8938 312.64 91.8938 307.201C91.8938 301.762 87.4868 297.355 82.048 297.355Z" fill="#7B2CBF"/>
</g>
<defs>
<clipPath id="clip0_93_15">
<rect width="454" height="454" fill="white"/>
</clipPath>
</defs>
</svg>
