<svg width="34" height="34" viewBox="0 0 34 34" fill="none" xmlns="http://www.w3.org/2000/svg">
<circle cx="17" cy="17" r="17" fill="#7B2CBF"/>
<path d="M30.8077 16.9038C30.8077 24.5769 24.5769 30.8077 16.9038 30.8077C9.23077 30.8077 3 24.5769 3 16.9038C3 9.23077 9.23077 3 16.9038 3C24.5769 3 30.8077 9.23077 30.8077 16.9038ZM12.4615 11.0192C11.0769 11.0192 9.98077 12.1154 9.98077 13.5C9.98077 14.8846 11.0769 15.9808 12.4615 15.9808C13.8462 15.9808 14.9423 14.8846 14.9423 13.5C14.9423 12.1154 13.8462 11.0192 12.4615 11.0192ZM21.4038 11.0192C20.0192 11.0192 18.9231 12.1154 18.9231 13.5C18.9231 14.8846 20.0192 15.9808 21.4038 15.9808C22.7885 15.9808 23.8846 14.8846 23.8846 13.5C23.8846 12.1154 22.7885 11.0192 21.4038 11.0192ZM21.2885 20.6538C20.1346 21.6923 18.5769 22.2692 16.9038 22.2692C15.2885 22.2692 13.7885 21.6923 12.5769 20.7115L12.0577 20.25C11.8846 20.1346 11.7692 20.0769 11.4231 20.0769C10.7885 20.0769 10.3269 20.5962 10.3269 21.1731C10.3269 21.4615 10.4423 21.75 10.6731 21.9808L11.0769 22.3269C12.6346 23.7115 14.7115 24.5192 16.9038 24.5192C19.1538 24.5192 21.2308 23.6538 22.7885 22.2692L23.0769 21.9808C23.3077 21.75 23.4231 21.4615 23.4231 21.1731C23.4231 20.5385 22.9038 20.0769 22.3269 20.0769C22.0385 20.0769 21.8077 20.1923 21.6346 20.3077L21.2885 20.6538Z" fill="white"/>
</svg>
