<svg width="20" height="29" viewBox="0 0 20 29" fill="none" xmlns="http://www.w3.org/2000/svg">
<g clip-path="url(#clip0_398_287)">
<path d="M14.2894 10.252C13.9391 10.4431 13.5018 10.3133 13.3137 9.96405C13.1233 9.61241 13.2526 9.17344 13.6029 8.98464C15.258 8.08311 16.0292 6.91726 16.1843 5.77736C16.2666 5.16848 16.1726 4.55723 15.9445 3.99082C15.7118 3.41734 15.3427 2.89577 14.8748 2.47569C13.965 1.65912 12.6884 1.22959 11.3554 1.56236C10.8146 1.69688 10.3468 1.96828 9.9377 2.3506C9.50276 2.75653 9.1266 3.28754 8.79746 3.9153C8.61173 4.26931 8.1768 4.40383 7.8265 4.21975C7.47385 4.0333 7.33984 3.5967 7.52322 3.24505C7.92759 2.47569 8.40014 1.81488 8.95968 1.29095C9.54508 0.745787 10.2245 0.354022 11.0145 0.15814C12.8482 -0.297345 14.595 0.283222 15.8364 1.39715C16.4664 1.96356 16.9672 2.66921 17.2822 3.44802C17.5996 4.23391 17.7289 5.09768 17.609 5.97325C17.3951 7.53558 16.3983 9.10264 14.2894 10.252ZM8.77395 15.9562C6.04678 12.2792 5.98096 8.79584 9.29117 5.55788L6.90725 4.23627C4.99824 3.4905 1.49524 8.987 2.84942 10.4549L4.70671 13.2209L4.3235 14.0233C4.2177 14.2617 4.32115 14.4292 4.57976 14.5449L4.83132 14.6133L0 24.2115L0.978018 26.3049L2.93405 25.7267L3.43717 24.7449L2.95521 23.8386L4.01787 23.6097L4.26472 23.1283L3.70989 22.2787L4.07429 21.5683L5.1346 21.4338L5.48019 20.7612L4.88774 19.9847L5.26625 19.2484L6.34771 19.0714L7.81944 16.2512L8.06865 16.388C8.50123 16.6524 8.72458 16.4824 8.77395 15.9562ZM13.9062 18.2619L13.1868 20.9571L12.1876 21.3535L11.9784 22.1394L12.7072 22.7601L12.5168 23.4752L11.5293 23.8245L11.3271 24.5797L12.0348 25.2759L11.8984 25.788L10.9275 26.2294L11.5763 26.9964L11.2966 28.0419L9.54508 29.0024L8.1768 27.2017L10.7864 17.4241L10.154 17.2542C10.0247 17.2188 9.94475 17.0842 9.98002 16.9521L10.2457 15.9585C8.33196 14.5024 7.38451 11.9819 8.04279 9.51092C8.88915 6.33669 12.0818 4.42035 15.2463 5.13308C15.2604 5.303 15.258 5.47528 15.2345 5.64756C15.1757 6.07709 14.99 6.51841 14.6468 6.94558C14.5997 7.00222 14.5504 7.06122 14.4986 7.11786C13.4877 7.05178 12.5403 7.70786 12.2675 8.7274C12.15 9.16636 12.1759 9.61005 12.3146 10.0089C12.3475 10.1505 12.4016 10.2874 12.4721 10.4219C12.639 10.7287 12.8835 10.9623 13.1703 11.111C13.3584 11.2361 13.57 11.3305 13.798 11.3942C14.9336 11.6987 16.0973 11.0426 16.4359 9.92157C16.7791 9.61713 17.0777 9.29616 17.334 8.96576C17.8324 8.32147 18.1733 7.63706 18.3755 6.94086C19.7484 8.42767 20.3527 10.5682 19.7908 12.6734C19.1325 15.1443 17.0518 16.853 14.6726 17.1527L14.407 18.1463C14.3717 18.2761 14.2377 18.3563 14.106 18.3209L13.9062 18.2619Z" fill="white"/>
</g>
<defs>
<clipPath id="clip0_398_287">
<rect width="20" height="29" fill="white"/>
</clipPath>
</defs>
</svg>
