<svg width="26" height="26" viewBox="0 0 26 26" fill="none" xmlns="http://www.w3.org/2000/svg">
<path d="M18.1731 0.41521C17.4407 0.61437 16.74 0.94067 16.1269 1.35459C15.8721 1.52983 14.5344 2.81163 13.1572 4.18911L10.6492 6.70513H11.6047C12.5919 6.70513 13.3007 6.81667 14.1764 7.11125L14.686 7.27843L16.3341 5.63835C18.3247 3.66391 18.4919 3.56043 19.686 3.56043C20.3628 3.56043 20.4902 3.58435 20.9042 3.79131C21.4455 4.07003 21.8994 4.53179 22.2099 5.12901C22.4007 5.50315 22.4249 5.63861 22.4327 6.30733C22.4327 7.55741 22.4488 7.53349 19.1762 10.8298C17.6396 12.3744 16.2065 13.7597 15.9834 13.911C14.9005 14.6593 13.3959 14.5319 12.4643 13.6164C12.1697 13.3299 12.0743 13.2821 11.6999 13.2504C11.1346 13.2025 10.9675 13.2982 10.0598 14.2137L9.31152 14.97L9.6061 15.3761C10.6968 16.8571 12.8387 17.8045 14.7814 17.6693C15.9836 17.5817 17.0348 17.2154 17.9583 16.5466C18.5634 16.1088 24.3437 10.3124 24.6942 9.78691C25.0844 9.21361 25.4029 8.48899 25.5857 7.74071C25.8327 6.77741 25.7768 5.36015 25.4583 4.41271C24.8294 2.54175 23.4519 1.17233 21.557 0.527269C20.6733 0.224109 19.073 0.176271 18.1731 0.41521Z" fill="black"/>
<path d="M10.554 8.38501C9.92502 8.48849 9.04908 8.81505 8.42014 9.18919C7.97424 9.45205 7.25768 10.1208 4.77364 12.5889C3.0696 14.2769 1.533 15.8691 1.35802 16.132C0.904056 16.7848 0.537976 17.6207 0.378596 18.3612C0.171636 19.2847 0.243136 20.6942 0.529916 21.554C1.17472 23.4489 2.5444 24.8264 4.41536 25.4553C5.3628 25.7738 6.78006 25.8295 7.74336 25.5827C8.5634 25.3758 9.27996 25.0495 9.92502 24.5874C10.1957 24.3883 11.5175 23.1226 12.8789 21.761L15.3471 19.285H14.3916C13.4043 19.285 12.6958 19.1735 11.8199 18.8789L11.3103 18.7117L9.67022 20.3359C7.6638 22.3184 7.48856 22.4299 6.31024 22.4299C5.68936 22.4219 5.4902 22.3902 5.1717 22.2388C4.61426 21.9682 4.06488 21.4347 3.80228 20.9011C3.58726 20.4872 3.56334 20.3598 3.56334 19.683C3.56334 18.409 3.53942 18.4491 6.81178 15.1606C8.35644 13.616 9.79762 12.2307 10.0124 12.0793C11.0953 11.3308 12.6002 11.4582 13.5317 12.3739C13.8263 12.6605 13.9217 12.7083 14.2961 12.74C14.8614 12.7879 15.0286 12.6922 15.9362 11.7686L16.6848 11.0123L16.3585 10.5745C15.7373 9.75443 14.5273 8.93439 13.4363 8.59197C12.5284 8.30545 11.4775 8.23369 10.554 8.38501Z" fill="black"/>
</svg>
