<svg width="793" height="552" viewBox="0 0 793 552" fill="none" xmlns="http://www.w3.org/2000/svg">
<g clip-path="url(#clip0_183_59)">
<path d="M158 551.731C245.261 551.731 316 546.359 316 539.731C316 533.104 245.261 527.731 158 527.731C70.739 527.731 0 533.104 0 539.731C0 546.359 70.739 551.731 158 551.731Z" fill="#E6E6E6"/>
<path d="M120.771 122.42C148.268 110.724 182.516 118.134 215.962 123.277C216.274 117.049 220.046 109.469 216.094 105.124C211.293 99.8455 211.735 94.299 214.624 88.7205C222.012 74.4555 211.427 59.2768 200.74 46.6558C198.331 43.8176 195.287 41.5875 191.854 40.1467C188.422 38.706 184.698 38.0952 180.985 38.364L161.187 39.7781C156.37 40.1222 151.772 41.9294 148.01 44.9579C144.247 47.9863 141.5 52.0915 140.134 56.7243C135.407 63.1535 132.877 69.5648 134.47 75.9428C127.389 80.7817 126.2 86.6226 129.381 93.2072C132.079 97.3532 132.051 101.389 129.259 105.313C125.592 110.316 122.783 115.894 120.948 121.819L120.771 122.42Z" fill="#2F2E41"/>
<path d="M774.209 476.963H213.791C208.807 476.963 204.028 474.983 200.504 471.459C196.98 467.935 195 463.156 195 458.172C398.151 434.562 597.485 434.562 793 458.172C793 463.156 791.02 467.935 787.496 471.459C783.972 474.983 779.193 476.963 774.209 476.963Z" fill="#2F2E41"/>
<path d="M793 459.277L195 458.172L264.306 341.556L264.638 341.004V83.9964C264.637 80.8769 265.252 77.7878 266.445 74.9057C267.639 72.0236 269.389 69.4049 271.595 67.1991C273.8 64.9932 276.419 63.2435 279.301 62.0498C282.183 60.8562 285.272 60.2419 288.392 60.2422H696.292C699.411 60.2419 702.501 60.8562 705.383 62.0498C708.265 63.2435 710.883 64.9932 713.089 67.1991C715.295 69.4049 717.045 72.0236 718.239 74.9057C719.432 77.7878 720.046 80.8769 720.046 83.9964V342.772L793 459.277Z" fill="#3F3D56"/>
<path d="M287.851 76.8225C285.799 76.8248 283.833 77.6408 282.382 79.0913C280.932 80.5419 280.116 82.5086 280.113 84.56V318.896C280.116 320.948 280.932 322.915 282.382 324.365C283.833 325.816 285.799 326.632 287.851 326.634H700.15C702.202 326.631 704.168 325.815 705.619 324.365C707.069 322.914 707.885 320.948 707.888 318.896V84.56C707.885 82.5086 707.069 80.542 705.619 79.0914C704.168 77.6409 702.202 76.8249 700.15 76.8225H287.851Z" fill="white"/>
<path d="M289.578 357.584C288.944 357.585 288.324 357.767 287.79 358.109C287.256 358.451 286.831 358.939 286.565 359.514L265.21 405.939C264.977 406.445 264.876 407 264.914 407.555C264.953 408.11 265.13 408.646 265.43 409.114C265.73 409.582 266.143 409.968 266.631 410.235C267.119 410.502 267.666 410.641 268.222 410.641H717.314C717.879 410.641 718.435 410.497 718.929 410.222C719.423 409.946 719.838 409.549 720.135 409.069C720.432 408.588 720.601 408.039 720.627 407.474C720.652 406.91 720.532 406.348 720.279 405.842L697.067 359.417C696.793 358.865 696.37 358.401 695.846 358.077C695.322 357.753 694.718 357.582 694.102 357.584H289.578Z" fill="#2F2E41"/>
<path d="M492.341 72.9537C495.088 72.9537 497.315 70.7267 497.315 67.9796C497.315 65.2325 495.088 63.0055 492.341 63.0055C489.594 63.0055 487.367 65.2325 487.367 67.9796C487.367 70.7267 489.594 72.9537 492.341 72.9537Z" fill="white"/>
<path d="M448.2 419.484C447.471 419.485 446.763 419.726 446.184 420.169C445.605 420.613 445.189 421.234 444.998 421.938L439.642 441.834C439.509 442.326 439.492 442.841 439.59 443.341C439.689 443.84 439.902 444.31 440.211 444.714C440.521 445.118 440.919 445.445 441.376 445.67C441.832 445.896 442.334 446.013 442.843 446.013H544.717C545.246 446.013 545.767 445.887 546.237 445.644C546.707 445.402 547.112 445.051 547.418 444.62C547.725 444.189 547.924 443.692 547.999 443.168C548.074 442.645 548.023 442.111 547.85 441.612L540.963 421.715C540.737 421.064 540.314 420.499 539.752 420.099C539.191 419.7 538.519 419.485 537.829 419.484H448.2Z" fill="#2F2E41"/>
<path d="M720.047 337.135V341.556H264.307L264.65 341.004V337.135H720.047Z" fill="#2F2E41"/>
<path d="M707.334 154.75C750.067 154.75 784.709 120.108 784.709 77.3752C784.709 34.6421 750.067 0 707.334 0C664.601 0 629.959 34.6421 629.959 77.3752C629.959 120.108 664.601 154.75 707.334 154.75Z" fill="#7B2CBF"/>
<path d="M739.39 111.089H675.279C674.107 111.088 672.983 110.621 672.154 109.792C671.325 108.964 670.859 107.84 670.857 106.667V67.9797C670.859 66.8074 671.325 65.6835 672.154 64.8546C672.983 64.0257 674.107 63.5595 675.279 63.5582H739.39C740.562 63.5595 741.686 64.0257 742.515 64.8546C743.344 65.6835 743.81 66.8074 743.811 67.9797V106.667C743.81 107.84 743.344 108.964 742.515 109.792C741.686 110.621 740.562 111.088 739.39 111.089ZM675.279 67.9797V106.667H739.393L739.39 67.9797L675.279 67.9797Z" fill="white"/>
<path d="M727.231 67.9796H687.438V50.2939C687.438 37.484 695.805 28.1866 707.334 28.1866C718.863 28.1866 727.23 37.484 727.23 50.2939L727.231 67.9796ZM691.859 63.5582H722.809V50.2939C722.809 39.8809 716.446 32.6081 707.334 32.6081C698.222 32.6081 691.859 39.8809 691.859 50.2939L691.859 63.5582Z" fill="white"/>
<path d="M707.336 90.6395C709.777 90.6395 711.757 88.66 711.757 86.2181C711.757 83.7762 709.777 81.7966 707.336 81.7966C704.894 81.7966 702.914 83.7762 702.914 86.2181C702.914 88.66 704.894 90.6395 707.336 90.6395Z" fill="white"/>
<path d="M653.32 247.149H334.68C333.116 247.148 331.616 246.525 330.51 245.419C329.403 244.313 328.781 242.813 328.779 241.249V162.208C328.781 160.643 329.403 159.144 330.51 158.037C331.616 156.931 333.116 156.309 334.68 156.307H653.32C654.884 156.309 656.384 156.931 657.49 158.037C658.596 159.144 659.219 160.643 659.221 162.208V241.249C659.219 242.813 658.596 244.313 657.49 245.419C656.384 246.525 654.884 247.148 653.32 247.149ZM334.68 158.667C333.741 158.668 332.841 159.042 332.178 159.705C331.514 160.369 331.141 161.269 331.14 162.208V241.249C331.141 242.187 331.514 243.087 332.178 243.751C332.841 244.415 333.741 244.788 334.68 244.789H653.32C654.259 244.788 655.158 244.415 655.822 243.751C656.486 243.087 656.859 242.187 656.86 241.249V162.208C656.859 161.269 656.486 160.369 655.822 159.705C655.158 159.042 654.259 158.668 653.32 158.667L334.68 158.667Z" fill="#E6E6E6"/>
<path d="M384.191 222.732C397.466 222.732 408.227 211.97 408.227 198.696C408.227 185.421 397.466 174.659 384.191 174.659C370.916 174.659 360.154 185.421 360.154 198.696C360.154 211.97 370.916 222.732 384.191 222.732Z" fill="#E6E6E6"/>
<path d="M439.704 182.671C439.177 182.67 438.656 182.773 438.169 182.974C437.682 183.175 437.24 183.47 436.867 183.842C436.494 184.214 436.199 184.656 435.997 185.143C435.795 185.629 435.691 186.151 435.691 186.677C435.691 187.204 435.795 187.725 435.997 188.212C436.199 188.698 436.494 189.14 436.867 189.512C437.24 189.884 437.682 190.179 438.169 190.38C438.656 190.581 439.177 190.684 439.704 190.683H628.562C629.624 190.683 630.643 190.261 631.394 189.51C632.146 188.759 632.568 187.74 632.568 186.677C632.568 185.615 632.146 184.596 631.394 183.844C630.643 183.093 629.624 182.671 628.562 182.671H439.704Z" fill="#E6E6E6"/>
<path d="M439.703 206.708C438.641 206.708 437.622 207.13 436.871 207.881C436.119 208.632 435.697 209.651 435.697 210.714C435.697 211.776 436.119 212.795 436.871 213.546C437.622 214.298 438.641 214.72 439.703 214.72H520.969C522.032 214.72 523.051 214.298 523.802 213.546C524.553 212.795 524.975 211.776 524.975 210.714C524.975 209.651 524.553 208.632 523.802 207.881C523.051 207.13 522.032 206.708 520.969 206.708H439.703Z" fill="#E6E6E6"/>
<path d="M263.522 208.328L204.619 239.644L203.873 213.547C223.099 210.338 241.39 204.75 258.302 195.653L264.463 180.433C265.134 178.774 266.225 177.319 267.629 176.209C269.033 175.1 270.701 174.375 272.469 174.105C274.238 173.834 276.046 174.029 277.717 174.669C279.388 175.309 280.864 176.372 281.999 177.755C283.661 179.778 284.492 182.356 284.323 184.969C284.154 187.581 282.999 190.031 281.091 191.824L263.522 208.328Z" fill="#FFB8B8"/>
<path d="M119.599 389.133C119.169 387.557 119.078 385.908 119.331 384.294C119.585 382.68 120.177 381.138 121.068 379.77L134.008 359.912C137.068 355.215 141.764 351.823 147.185 350.393C152.605 348.962 158.363 349.597 163.343 352.173C157.905 361.429 158.663 369.549 165.221 376.606C155.04 381.576 145.631 387.991 137.285 395.651C135.761 396.69 134.011 397.35 132.181 397.575C130.351 397.801 128.493 397.586 126.763 396.948C125.032 396.31 123.48 395.268 122.233 393.909C120.987 392.549 120.084 390.912 119.599 389.133Z" fill="#2F2E41"/>
<path d="M266.206 363.168C264.248 366.432 261.484 369.137 258.179 371.025C254.875 372.912 251.14 373.919 247.335 373.948L161.374 374.599L157.646 352.976L195.672 341.792L163.611 317.187L198.655 276.178L262.305 335.503C266.025 338.97 268.442 343.609 269.152 348.645C269.862 353.681 268.822 358.808 266.206 363.168Z" fill="#2F2E41"/>
<path d="M147.952 511.045H127.821C109.746 387.147 91.3471 262.903 145.716 216.53L209.838 226.968L201.636 281.398L165.847 322.406L147.952 511.045Z" fill="#2F2E41"/>
<path d="M165.649 539.112C164.073 539.542 162.424 539.633 160.81 539.38C159.196 539.127 157.654 538.535 156.285 537.643L134.427 534.705C129.73 531.645 126.337 526.949 124.907 521.529C123.476 516.108 124.11 510.35 126.686 505.37C135.943 510.808 144.063 510.049 151.119 503.491C156.105 513.558 164.32 512.944 172.166 521.426C173.205 522.949 173.865 524.699 174.09 526.529C174.316 528.36 174.101 530.217 173.463 531.948C172.826 533.678 171.784 535.231 170.424 536.477C169.065 537.723 167.428 538.626 165.649 539.112Z" fill="#2F2E41"/>
<path d="M195.671 133.767L158.391 124.82C164.582 112.146 165.092 98.0438 162.119 83.0659L187.469 82.3203C188.264 100.946 190.667 118.347 195.671 133.767Z" fill="#FFB8B8"/>
<path d="M205.918 249.418C178.779 267.911 159.604 250.051 144.971 222.495C147.004 205.633 143.712 185.454 137.614 163.528C134.902 153.858 135.914 143.522 140.451 134.561C144.988 125.6 152.72 118.666 162.119 115.127L194.181 128.548C221.404 150.739 226.763 174.775 216.549 200.127L205.918 249.418Z" fill="#7B2CBF"/>
<path d="M127.82 152.408L97.996 168.065L150.934 199.381L158.3 217.55C158.792 218.763 159.031 220.063 159.004 221.372C158.977 222.68 158.683 223.969 158.142 225.16C157.6 226.351 156.821 227.42 155.853 228.3C154.885 229.181 153.748 229.855 152.511 230.281C151.105 230.766 149.605 230.919 148.13 230.728C146.655 230.536 145.244 230.006 144.008 229.179C142.772 228.351 141.744 227.249 141.005 225.957C140.267 224.666 139.837 223.222 139.749 221.737L139.004 209.074L71.7206 186.87C69.4537 186.122 67.3867 184.868 65.6762 183.203C63.9657 181.537 62.6566 179.505 61.848 177.259C60.6693 173.985 60.6094 170.412 61.6774 167.101C62.7454 163.789 64.8812 160.925 67.7506 158.956L121.855 121.838L127.82 152.408Z" fill="#FFB8B8"/>
<path d="M157.646 155.39C145.207 149.939 133.896 155.86 119.62 160.609L117.383 121.092C131.559 113.536 145.075 111.499 157.646 117.364L157.646 155.39Z" fill="#7B2CBF"/>
<path d="M172.525 101.895C185.67 101.895 196.327 91.2381 196.327 78.0925C196.327 64.947 185.67 54.2904 172.525 54.2904C159.379 54.2904 148.723 64.947 148.723 78.0925C148.723 91.2381 159.379 101.895 172.525 101.895Z" fill="#FFB8B8"/>
<path d="M201 75.0893C177.434 77.3974 159.477 73.5433 148 62.5693V53.7316H199L201 75.0893Z" fill="#2F2E41"/>
</g>
<defs>
<clipPath id="clip0_183_59">
<rect width="793" height="551.732" fill="white"/>
</clipPath>
</defs>
</svg>
