<svg width="47" height="47" viewBox="0 0 47 47" fill="none" xmlns="http://www.w3.org/2000/svg">
<path d="M23.4997 43.6536C34.6293 43.6536 43.6533 34.6296 43.6533 23.5C43.6533 12.3704 34.6293 3.35107 23.4997 3.35107C12.3701 3.35107 3.35083 12.3704 3.35083 23.5C3.35083 34.6296 12.3701 43.6536 23.4997 43.6536ZM23.4997 46.53C10.7815 46.53 0.469727 36.2182 0.469727 23.5C0.469727 10.7818 10.7815 0.469971 23.4997 0.469971C36.2179 0.469971 46.5297 10.7818 46.5297 23.5C46.5297 36.2182 36.2179 46.53 23.4997 46.53ZM11.2656 23.5C11.2656 22.3062 12.2244 21.3427 13.437 21.3427H33.5624C34.7609 21.3427 35.7338 22.3015 35.7338 23.5C35.7338 24.6938 34.775 25.6573 33.5624 25.6573H13.437C12.2385 25.6573 11.2656 24.6985 11.2656 23.5ZM23.4997 35.7341C22.3059 35.7341 21.3424 34.7753 21.3424 33.5627V13.4373C21.3424 12.2388 22.3012 11.2659 23.4997 11.2659C24.6935 11.2659 25.657 12.2247 25.657 13.4373V33.5627C25.657 34.7612 24.6982 35.7341 23.4997 35.7341Z" fill="white"/>
</svg>
