<svg width="189" height="216" viewBox="0 0 189 216" fill="none" xmlns="http://www.w3.org/2000/svg">
<path d="M184.582 164.99L167.195 147.602C168.191 146.815 169.1 145.901 169.885 144.823C173.872 139.345 172.902 132.143 172.045 125.79C171.504 121.776 170.944 117.627 171.796 115.005C172.58 112.59 175.383 109.678 178.095 106.861C182.631 102.148 187.772 96.807 187.772 89.763C187.772 82.719 182.631 77.377 178.095 72.665C175.384 69.849 172.58 66.936 171.797 64.522C170.944 61.899 171.504 57.749 172.045 53.735C172.901 47.381 173.872 40.18 169.886 34.703C165.862 29.174 158.671 27.875 152.327 26.73C148.376 26.016 144.29 25.279 142.114 23.695C139.989 22.149 138.052 18.526 136.18 15.022C133.118 9.296 129.65 2.807 123.061 0.668C121.694 0.226 120.231 0 118.713 0C113.828 0 109.092 2.278 104.512 4.48C100.806 6.263 96.9743 8.106 94.1153 8.106C91.2553 8.106 87.4243 6.263 83.7183 4.48C79.1373 2.278 74.4023 0 69.5163 0C67.9983 0 66.5363 0.226 65.1683 0.669C58.5803 2.809 55.1103 9.298 52.0493 15.024C50.1773 18.527 48.2403 22.149 46.1163 23.695C43.9403 25.279 39.8543 26.016 35.9033 26.73C29.5593 27.875 22.3693 29.173 18.3433 34.704C14.3573 40.182 15.3273 47.383 16.1843 53.735C16.7253 57.749 17.2853 61.899 16.4323 64.522C15.6493 66.936 12.8453 69.849 10.1343 72.666C5.5983 77.379 0.457298 82.72 0.457298 89.764C0.457298 96.807 5.5983 102.148 10.1333 106.86C12.8453 109.677 15.6493 112.59 16.4323 115.005C17.2853 117.628 16.7253 121.778 16.1843 125.791C15.3283 132.145 14.3573 139.346 18.3433 144.823C19.1353 145.912 20.0533 146.831 21.0603 147.623L3.6933 164.99C-0.981702 169.666 -0.116702 173.885 0.473298 175.481C1.0623 177.078 3.1433 180.848 9.7343 181.368L26.8783 182.722C29.9233 182.963 32.8043 185.844 33.0443 188.888L34.3983 206.033C34.9653 213.225 39.3983 215.778 43.0213 215.778H43.0223C44.8693 215.778 47.7133 215.135 50.7763 212.073L90.8353 172.015C92.0133 171.652 93.1253 171.421 94.1153 171.421C95.1243 171.421 96.2583 171.659 97.4603 172.034L137.499 212.073C140.561 215.136 143.405 215.778 145.253 215.778C148.876 215.778 153.309 213.226 153.877 206.033L155.231 188.889C155.472 185.844 158.353 182.963 161.396 182.722L178.542 181.368C185.133 180.848 187.214 177.078 187.803 175.481C188.392 173.885 189.257 169.666 184.582 164.99ZM110.834 99.641L121.055 131.019L94.2963 111.538L67.5373 130.96L77.7593 99.651L51.0003 80.357H84.0763L94.2973 48.9L104.518 80.357H137.594L110.834 99.641Z" fill="#D2AF26"/>
</svg>
