<svg width="50" height="50" viewBox="0 0 50 50" fill="none" xmlns="http://www.w3.org/2000/svg">
<g clip-path="url(#clip0_145_74)">
<path d="M24.9789 50C18.3317 50 12.1 47.5 7.3223 42.7083C-2.44077 32.9167 -2.44077 17.0833 7.3223 7.29167C12.1 2.5 18.3317 0 24.9789 0C31.6261 0 37.8578 2.5 42.6355 7.29167C52.3986 17.0833 52.3986 32.9167 42.6355 42.7083C37.8578 47.5 31.6261 50 24.9789 50ZM24.9789 4.16667C19.3703 4.16667 14.1772 6.25 10.2304 10.2083C2.12918 18.3333 2.12918 31.6667 10.2304 39.7917C14.1772 43.75 19.3703 45.8333 24.9789 45.8333C30.5875 45.8333 35.7806 43.75 39.7274 39.7917C47.8286 31.6667 47.8286 18.5417 39.7274 10.4167C35.7806 6.25 30.5875 4.16667 24.9789 4.16667Z" fill="white"/>
<path d="M24.9786 37.5C23.7323 37.5 22.9014 36.6667 22.9014 35.4167V14.5833C22.9014 13.3333 23.7323 12.5 24.9786 12.5C26.225 12.5 27.0559 13.3333 27.0559 14.5833V35.4167C27.0559 36.6667 26.225 37.5 24.9786 37.5Z" fill="white"/>
<path d="M35.3654 27.0833H14.5929C13.3465 27.0833 12.5156 26.25 12.5156 25C12.5156 23.75 13.3465 22.9166 14.5929 22.9166H35.3654C36.6117 22.9166 37.4426 23.75 37.4426 25C37.4426 26.25 36.6117 27.0833 35.3654 27.0833Z" fill="white"/>
</g>
<defs>
<clipPath id="clip0_145_74">
<rect width="50" height="50" fill="white"/>
</clipPath>
</defs>
</svg>
