<svg width="70" height="70" viewBox="0 0 70 70" fill="none" xmlns="http://www.w3.org/2000/svg">
<path d="M57.5254 34.0053C57.5254 35.1395 56.6059 36.059 55.4717 36.059C54.5026 36.059 53.6956 35.3855 53.4795 34.4827L53.4731 34.4844C53.2433 33.6013 52.4477 32.9464 51.4927 32.9464C50.3585 32.9464 49.4391 33.8659 49.4391 35C49.4391 35.9516 50.0895 36.7442 50.9675 36.9774L50.9633 36.993C51.8557 37.2163 52.5195 38.0174 52.5195 38.9791C52.5195 40.1132 51.6001 41.0326 50.4658 41.0326C50.2729 41.0326 50.0899 40.9975 49.9129 40.9477L49.9126 40.9488C47.2771 40.2502 45.3317 37.8554 45.3317 35C45.3317 31.5975 48.0901 28.8391 51.4927 28.8391C54.3584 28.8391 56.7602 30.7987 57.4489 33.4489L57.44 33.4513C57.4901 33.6286 57.5254 33.812 57.5254 34.0053ZM35.0637 41.161C31.6611 41.161 28.9029 38.4026 28.9029 35C28.9029 31.5975 31.6611 28.8391 35.0637 28.8391C38.4663 28.8391 41.2246 31.5975 41.2246 35C41.2246 38.4026 38.4663 41.161 35.0637 41.161ZM35.0637 32.9464C33.9295 32.9464 33.01 33.8659 33.01 35C33.01 36.1343 33.9295 37.0537 35.0637 37.0537C36.1979 37.0537 37.1174 36.1343 37.1174 35C37.1174 33.8659 36.1979 32.9464 35.0637 32.9464ZM18.6346 41.161C15.232 41.161 12.4736 38.4026 12.4736 35C12.4736 31.5975 15.232 28.8391 18.6346 28.8391C22.0371 28.8391 24.7955 31.5975 24.7955 35C24.7955 38.4026 22.0372 41.161 18.6346 41.161ZM18.6346 32.9464C17.5004 32.9464 16.581 33.8659 16.581 35C16.581 36.1343 17.5004 37.0537 18.6346 37.0537C19.7688 37.0537 20.6882 36.1343 20.6882 35C20.6882 33.8659 19.7688 32.9464 18.6346 32.9464Z" fill="white"/>
</svg>
